<?xml version="1.0" encoding="UTF-8"?><svg id="Layer_1" xmlns="http://www.w3.org/2000/svg" xmlns:xlink="http://www.w3.org/1999/xlink" viewBox="0 0 766 250"><defs><style>.cls-1{fill:#8e9194;}.cls-2,.cls-3{fill:#fff;}.cls-3{fill-rule:evenodd;}.cls-4{fill:none;}.cls-5{fill:#3c3f42;}.cls-6{fill:#aaadaf;}.cls-7{clip-path:url(#clippath);}.cls-8{fill:#e9eaeb;}</style><clipPath id="clippath"><rect class="cls-4" width="766" height="250"/></clipPath></defs><g class="cls-7"><circle class="cls-6" cx="508" cy="-8" r="258"/><rect class="cls-8" width="383" height="250"/><path class="cls-5" d="M515,69l58-14-23-40-35,54Z"/><path class="cls-2" d="M474.59,104.47v-35h9.55l1.11,3.55c3.85-2.96,7.77-4.44,11.77-4.44,7.84,0,11.77,4.34,11.77,13.02v22.87h-11.17v-19.54c0-2.17-.32-3.82-.96-4.96-.64-1.18-1.9-1.78-3.77-1.78-2.52,0-4.88.86-7.1,2.59v23.68h-11.2Z"/><path class="cls-2" d="M465.81,100.03c-3.4,3.45-7.82,5.18-13.25,5.18s-9.87-1.73-13.32-5.18c-3.4-3.45-5.11-7.84-5.11-13.17s1.7-9.69,5.11-13.1c3.45-3.45,7.89-5.18,13.32-5.18s9.84,1.73,13.25,5.18c3.45,3.4,5.18,7.77,5.18,13.1s-1.73,9.72-5.18,13.17ZM447.24,93.82c1.18,1.73,2.96,2.59,5.33,2.59s4.12-.86,5.25-2.59c1.18-1.78,1.78-4.09,1.78-6.96s-.59-5.16-1.78-6.88c-1.13-1.73-2.89-2.59-5.25-2.59s-4.14.86-5.33,2.59c-1.13,1.73-1.7,4.02-1.7,6.88s.57,5.18,1.7,6.96Z"/><path class="cls-3" d="M419.34,69.47v35h11.17v-35h-11.17Z"/><path class="cls-2" d="M405.31,105.21c-3.5,0-6.29-.91-8.36-2.74-2.07-1.88-3.11-4.39-3.11-7.55v-33.74l11.17-3.18v11.47h10.66l-2.52,8.58h-8.14v13.91c0,1.63.25,2.79.74,3.48.54.64,1.38.96,2.52.96,1.78,0,3.48-.49,5.11-1.48l3.11,7.55c-2.71,1.83-6.44,2.74-11.17,2.74h0Z"/><path class="cls-5" d="M424.5,63c2.11,0,3.89-.72,5.33-2.17,1.45-1.5,2.17-3.29,2.17-5.38s-.72-3.9-2.17-5.29c-1.44-1.45-3.22-2.17-5.33-2.17s-3.89.72-5.33,2.17c-1.45,1.45-2.17,3.21-2.17,5.29s.72,3.93,2.17,5.38c1.44,1.45,3.22,2.17,5.33,2.17Z"/><path class="cls-5" d="M385.17,104.47l-1.55-2.96c-2.81,2.47-6.07,3.7-9.77,3.7-3.45,0-6.31-1.06-8.58-3.18-2.22-2.17-3.33-4.93-3.33-8.29,0-4.29,1.95-7.47,5.85-9.55,2.42-1.28,5.5-2,9.25-2.15l5.55-.22v-.37c0-3.06-2.05-4.59-6.14-4.59-3.21,0-6.17.72-8.88,2.15l-3.48-7.03c4.54-2.27,9.35-3.4,14.43-3.4,10.16,0,15.24,4.44,15.24,13.32v15.69c0,3.31.2,5.6.59,6.88h-9.18ZM382.58,88.86l-3.77.15c-1.83.1-3.21.42-4.14.96-1.04.69-1.55,1.7-1.55,3.03,0,2.42,1.46,3.63,4.37,3.63,2.07,0,3.77-.42,5.11-1.26v-6.51h-.02Z"/><path class="cls-5" d="M337.81,104.47v-35h9.47l1.18,3.55c3.3-2.96,6.46-4.44,9.47-4.44,2.17,0,4.09.59,5.77,1.78l-3.92,9.18c-1.58-.99-3.16-1.48-4.74-1.48-1.97,0-4,.79-6.07,2.37v24.05h-11.17.01Z"/><path class="cls-5" d="M323.78,105.21c-3.5,0-6.29-.91-8.36-2.74-2.07-1.88-3.11-4.39-3.11-7.55v-16.87h-6.59v-8.58h6.59v-8.29l11.17-3.18v11.47h10.66l-2.52,8.58h-8.14v13.91c0,1.63.25,2.79.74,3.48.54.64,1.38.96,2.52.96,1.78,0,3.48-.49,5.11-1.48l3.11,7.55c-2.71,1.83-6.44,2.74-11.17,2.74h0Z"/><path class="cls-5" d="M272.61,101.51l3.4-7.99c3.16,2.07,6.51,3.11,10.06,3.11s5.25-.79,5.25-2.37c0-.84-.57-1.55-1.7-2.15-1.14-.59-2.52-1.13-4.14-1.63-1.58-.54-3.18-1.16-4.81-1.85-1.63-.74-3.01-1.85-4.14-3.33-1.13-1.53-1.7-3.38-1.7-5.55,0-3.35,1.28-6.04,3.85-8.07,2.62-2.07,6.09-3.11,10.43-3.11,4.1,0,7.84.59,11.25,1.78v9.25c-4.04-1.63-7.65-2.44-10.8-2.44-2.57,0-3.85.69-3.85,2.07,0,.59.4,1.13,1.18,1.63.84.49,1.88.91,3.11,1.26,1.23.3,2.54.74,3.92,1.33,1.43.59,2.76,1.28,4,2.07,1.23.74,2.24,1.85,3.03,3.33.84,1.43,1.26,3.13,1.26,5.11,0,3.85-1.45,6.69-4.37,8.51-2.86,1.83-6.44,2.74-10.73,2.74-5.72,0-10.56-1.23-14.5-3.7h0Z"/><path class="cls-5" d="M248.65,105.21c-2.17,0-4.32-.54-6.44-1.63s-3.75-2.91-4.88-5.48c-.89-2.12-1.33-4.79-1.33-7.99v-20.65h11.17v19.98c0,1.53.25,2.76.74,3.7.99,1.78,2.64,2.66,4.96,2.66,2.12,0,3.9-.64,5.33-1.92v-24.42h11.17v28.56c0,3.01.2,5.16.59,6.44h-9.4l-1.55-3.33c-3.01,2.71-6.46,4.07-10.36,4.07h0Z"/><path class="cls-5" d="M207.4,175c-10.93,0-16.4-5.15-16.4-15.46,0-2.29.49-5.81,1.47-10.55L223.55.01h12.72l-31.08,149.72c-.65,2.62-.98,4.99-.98,7.12,0,4.25,2.2,6.38,6.61,6.38,2.77,0,5.95-.74,9.54-2.21v11.29c-3.59,1.8-7.91,2.7-12.97,2.7h0Z"/><path class="cls-5" d="M172.4,175c-10.93,0-16.4-5.15-16.4-15.46,0-2.29.49-5.81,1.47-10.55L188.55.01h14.28l-32.63,149.72c-.65,2.62-.98,4.99-.98,7.12,0,4.25,2.2,6.38,6.61,6.38,2.77,0,5.95-.74,9.54-2.21v11.29c-3.59,1.8-7.91,2.7-12.97,2.7h0Z"/><path class="cls-5" d="M120,174.09l24.23-116.09h12.73l-24.23,116.09h-12.73Z"/><path class="cls-1" d="M153.5,50c2.11,0,3.89-.72,5.33-2.17,1.45-1.5,2.17-3.29,2.17-5.38s-.72-3.9-2.17-5.29c-1.44-1.45-3.22-2.17-5.33-2.17s-3.89.72-5.33,2.17c-1.45,1.45-2.17,3.21-2.17,5.29s.72,3.93,2.17,5.38c1.44,1.45,3.22,2.17,5.33,2.17Z"/></g></svg>