<svg width="766" height="250" viewBox="0 0 766 250" fill="none" xmlns="http://www.w3.org/2000/svg">
<g clip-path="url(#clip0_540_733)">
<rect width="766" height="250" fill="white"/>
<circle cx="258" cy="258" r="258" transform="matrix(-1 0 0 1 766 -266)" fill="#AAADAF"/>
<rect width="383" height="250" transform="matrix(-1 0 0 1 383 0)" fill="white"/>
<path d="M565 28L507 42L530 82L565 28Z" fill="#3C3F42"/>
<path d="M474.646 101.961L478.05 93.9688C481.208 96.0408 484.562 97.0768 488.114 97.0768C491.617 97.0768 493.368 96.2874 493.368 94.7088C493.368 93.8701 492.801 93.1548 491.666 92.5628C490.532 91.9708 489.15 91.4281 487.522 90.9348C485.944 90.3921 484.34 89.7754 482.712 89.0848C481.084 88.3448 479.703 87.2348 478.568 85.7548C477.434 84.2254 476.866 82.3754 476.866 80.2048C476.866 76.8501 478.149 74.1614 480.714 72.1388C483.329 70.0668 486.807 69.0308 491.148 69.0308C495.243 69.0308 498.992 69.6228 502.396 70.8068V80.0568C498.351 78.4288 494.75 77.6148 491.592 77.6148C489.027 77.6148 487.744 78.3054 487.744 79.6868C487.744 80.2788 488.139 80.8214 488.928 81.3148C489.767 81.8081 490.803 82.2274 492.036 82.5728C493.27 82.8688 494.577 83.3128 495.958 83.9048C497.389 84.4968 498.721 85.1874 499.954 85.9768C501.188 86.7168 502.199 87.8268 502.988 89.3068C503.827 90.7374 504.246 92.4394 504.246 94.4128C504.246 98.2608 502.791 101.097 499.88 102.923C497.019 104.748 493.442 105.661 489.15 105.661C483.428 105.661 478.593 104.427 474.646 101.961Z" fill="white"/>
<path d="M474.374 90.756H452.174C452.273 92.828 453.111 94.4067 454.69 95.492C456.318 96.528 458.365 97.046 460.832 97.046C464.088 97.046 467.097 96.2567 469.86 94.678L473.116 102.226C469.367 104.495 464.976 105.63 459.944 105.63C453.481 105.63 448.696 103.928 445.588 100.524C442.529 97.0707 441 92.828 441 87.796C441 82.32 442.455 77.8307 445.366 74.328C448.277 70.776 452.396 69 457.724 69C462.953 69 467.023 70.702 469.934 74.106C472.894 77.51 474.374 82.1967 474.374 88.166V90.756ZM452.026 83.356H463.2C463.151 81.6293 462.657 80.1987 461.72 79.064C460.783 77.88 459.377 77.288 457.502 77.288C455.775 77.288 454.419 77.88 453.432 79.064C452.495 80.248 452.026 81.6787 452.026 83.356Z" fill="white"/>
<path d="M383.022 104.921V69.9188H392.42L393.456 73.4708C397.403 70.5108 401.226 69.0308 404.926 69.0308C409.317 69.0308 412.499 70.6834 414.472 73.9888C418.567 70.6834 422.662 69.0308 426.756 69.0308C430.358 69.0308 433.318 70.0668 435.636 72.1388C438.004 74.1614 439.188 77.4421 439.188 81.9808V104.921H428.014V84.8668C428.014 82.8441 427.694 81.3148 427.052 80.2788C426.46 79.1934 425.227 78.6508 423.352 78.6508C420.984 78.6508 418.764 79.4154 416.692 80.9448V104.921H405.518V85.0148C405.518 82.9428 405.222 81.3641 404.63 80.2788C404.038 79.1934 402.805 78.6508 400.93 78.6508C398.513 78.6508 396.268 79.4154 394.196 80.9448V104.921H383.022Z" fill="white"/>
<path d="M382.512 90.7868H360.312C360.41 92.8588 361.249 94.4374 362.828 95.5228C364.456 96.5588 366.503 97.0768 368.97 97.0768C372.226 97.0768 375.235 96.2874 377.998 94.7088L381.254 102.257C377.504 104.526 373.114 105.661 368.082 105.661C361.619 105.661 356.834 103.959 353.726 100.555C350.667 97.1014 349.138 92.8588 349.138 87.8268C349.138 82.3508 350.593 77.8614 353.504 74.3588C356.414 70.8068 360.534 69.0308 365.862 69.0308C371.091 69.0308 375.161 70.7328 378.072 74.1368C381.032 77.5408 382.512 82.2274 382.512 88.1968V90.7868ZM360.164 83.3868H371.338C371.288 81.6601 370.795 80.2294 369.858 79.0948C368.92 77.9108 367.514 77.3188 365.64 77.3188C363.913 77.3188 362.556 77.9108 361.57 79.0948C360.632 80.2788 360.164 81.7094 360.164 83.3868Z" fill="#3C3F42"/>
<path d="M312.624 104.921V52.5286H323.798V73.3966C327.251 70.4859 331 69.0306 335.046 69.0306C342.89 69.0306 346.812 73.3719 346.812 82.0546V104.921H335.638V85.3846C335.638 83.2139 335.317 81.5612 334.676 80.4266C334.034 79.2426 332.776 78.6506 330.902 78.6506C328.386 78.6506 326.018 79.5139 323.798 81.2406V104.921H312.624Z" fill="#3C3F42"/>
<path d="M298.794 105.661C293.022 105.661 288.483 103.983 285.178 100.629C281.922 97.2738 280.294 92.9325 280.294 87.6045C280.294 82.1285 282.169 77.6639 285.918 74.2105C289.717 70.7572 294.255 69.0305 299.534 69.0305C303.629 69.0305 306.959 69.8939 309.524 71.6205V80.8705C306.909 78.8479 304.023 77.8365 300.866 77.8365C298.005 77.8365 295.76 78.7492 294.132 80.5745C292.504 82.3998 291.69 84.7185 291.69 87.5305C291.69 90.4905 292.479 92.7845 294.058 94.4125C295.637 96.0405 297.758 96.8545 300.422 96.8545C302.889 96.8545 305.553 96.0652 308.414 94.4865L311.522 102.035C308.167 104.452 303.925 105.661 298.794 105.661Z" fill="#3C3F42"/>
<path d="M297 0C281.972 11.1163 276.145 23.0848 274.175 36.9106C272.14 51.189 274.432 66.518 276.615 82.8948C278.74 98.8327 280.766 115.82 277.007 131.629C273.133 147.923 263.358 162.496 243 174L237 163.5C254.642 153.531 262.277 141.706 265.331 128.86C268.5 115.53 266.883 100.705 264.72 84.4767C262.615 68.6873 259.976 51.4964 262.295 35.2223C264.076 22.7234 268.81 10.7529 278.5 0H297Z" fill="#3C3F42"/>
</g>
<defs>
<clipPath id="clip0_540_733">
<rect width="766" height="250" fill="white"/>
</clipPath>
</defs>
</svg>
