<?xml version="1.0" encoding="UTF-8"?>
<svg id="Layer_1" xmlns="http://www.w3.org/2000/svg" version="1.1" viewBox="0 0 766 250">
  <!-- Generator: Adobe Illustrator 29.4.0, SVG Export Plug-In . SVG Version: 2.1.0 Build 152)  -->
  <defs>
    <style>
      .st0 {
        fill: #fff;
      }

      .st1 {
        fill: #3c3f42;
      }
    </style>
  </defs>
  <path id="A" class="st1" d="M541.61,104l25-66.1h5.1l25.2,66.1h-8l-6.5-17.7h-26.5l-6.5,17.7h-7.8ZM558.21,80.1h21.8l-6.8-19c-1.47-4-2.77-7.8-3.9-11.4h-.2c-.67,2-2,5.8-4,11.4l-6.9,19Z"/>
  <path id="I" class="st1" d="M528.91,104V38.1h7.4v65.9h-7.4Z"/>
  <path id="D" class="st1" d="M469.16,104V38.1h15.8c11.4,0,20.07,3,26,9,5.93,5.93,8.9,13.8,8.9,23.6s-3,17.97-9,24.1c-6,6.13-14.73,9.2-26.2,9.2h-15.5ZM476.56,97.7h8c9.6,0,16.57-2.5,20.9-7.5,4.4-5.07,6.6-11.67,6.6-19.8s-2.33-14.23-7-18.9c-4.6-4.73-11.5-7.1-20.7-7.1h-7.8v53.3Z"/>
  <path id="E" class="st1" d="M427.38,104V38.1h31.8l-2.4,6.3h-22v22.8h21.7v6.3h-21.7v24.2h25v6.3h-32.4Z"/>
  <path id="M" class="st1" d="M353.28,104V38.1h6.9l18.4,27.7c2.8,4.27,4.83,7.43,6.1,9.5h.2c.4-.73,2.43-4.03,6.1-9.9l17.3-27.3h6.9v65.9h-7.4v-42.3c0-5.13.07-8.87.2-11.2h-.2c-1.33,2.53-2.9,5.2-4.7,8l-16.3,26h-3.9l-17.7-26.5c-2.13-3-3.63-5.43-4.5-7.3h-.2c.13,2.07.2,5.7.2,10.9v42.4h-7.4Z"/>
  <path id="arr" class="st1" d="M599,104l58-14-23-40-35,54Z"/>
  <path id="l" class="st0" d="M328.98,95.05V-.39h11.17v92.63c0,1.83.84,2.74,2.52,2.74.79,0,3.83.03,6.33-.97l-2,10c-2.5.5-4.8.59-7.66.59-6.91,0-10.36-3.18-10.36-9.55Z"/>
  <path id="a" class="st0" d="M314.64,104l-1.55-2.96c-2.81,2.47-6.07,3.7-9.77,3.7-3.45,0-6.31-1.06-8.58-3.18-2.22-2.17-3.33-4.93-3.33-8.29,0-4.29,1.95-7.47,5.85-9.55,2.42-1.28,5.5-2,9.25-2.15l5.55-.22v-.37c0-3.06-2.05-4.59-6.14-4.59-3.21,0-6.17.72-8.88,2.15l-3.48-7.03c4.54-2.27,9.35-3.4,14.43-3.4,10.16,0,15.24,4.44,15.24,13.32v15.69c0,3.31.2,5.6.59,6.88h-9.18ZM312.05,88.39l-3.77.15c-1.83.1-3.21.42-4.14.96-1.04.69-1.55,1.7-1.55,3.03,0,2.42,1.46,3.63,4.37,3.63,2.07,0,3.77-.42,5.11-1.26v-6.51Z"/>
  <path id="i" class="st0" d="M277,104v-35h11.17v35h-11.17Z"/>
  <path id="_x30_" class="st1" d="M282.5,63c2.11,0,3.89-.72,5.33-2.17,1.45-1.5,2.17-3.29,2.17-5.38s-.72-3.9-2.17-5.29c-1.44-1.45-3.22-2.17-5.33-2.17s-3.89.72-5.33,2.17c-1.45,1.45-2.17,3.21-2.17,5.29s.72,3.93,2.17,5.38c1.44,1.45,3.22,2.17,5.33,2.17Z"/>
  <path id="c" class="st0" d="M260.89,104.74c-5.77,0-10.31-1.68-13.62-5.03-3.26-3.35-4.88-7.7-4.88-13.02s1.88-9.94,5.62-13.39c3.8-3.45,8.34-5.18,13.62-5.18,4.1,0,7.42.86,9.99,2.59v9.25c-2.61-2.02-5.5-3.03-8.66-3.03-2.86,0-5.11.91-6.73,2.74-1.63,1.83-2.44,4.14-2.44,6.96,0,2.96.79,5.25,2.37,6.88,1.58,1.63,3.7,2.44,6.36,2.44,2.47,0,5.13-.79,7.99-2.37l3.11,7.55c-3.35,2.42-7.6,3.63-12.73,3.63Z"/>
  <path id="o" class="st0" d="M234.87,99.56c-3.4,3.45-7.82,5.18-13.25,5.18s-9.87-1.73-13.32-5.18c-3.4-3.45-5.11-7.84-5.11-13.17s1.7-9.69,5.11-13.1c3.45-3.45,7.89-5.18,13.32-5.18s9.84,1.73,13.25,5.18c3.45,3.4,5.18,7.77,5.18,13.1s-1.73,9.72-5.18,13.17ZM216.29,93.34c1.18,1.73,2.96,2.59,5.33,2.59s4.12-.86,5.25-2.59c1.18-1.78,1.78-4.09,1.78-6.96s-.59-5.16-1.78-6.88c-1.13-1.73-2.89-2.59-5.25-2.59s-4.14.86-5.33,2.59c-1.13,1.73-1.7,4.02-1.7,6.88s.57,5.18,1.7,6.96Z"/>
  <path id="s" class="st0" d="M171.29,101.04l3.4-7.99c3.16,2.07,6.51,3.11,10.06,3.11s5.25-.79,5.25-2.37c0-.84-.57-1.55-1.7-2.15-1.13-.59-2.52-1.13-4.14-1.63-1.58-.54-3.18-1.16-4.81-1.85-1.63-.74-3.01-1.85-4.14-3.33-1.13-1.53-1.7-3.38-1.7-5.55,0-3.35,1.28-6.04,3.85-8.07,2.62-2.07,6.09-3.11,10.43-3.11,4.1,0,7.84.59,11.25,1.78v9.25c-4.04-1.63-7.65-2.44-10.8-2.44-2.57,0-3.85.69-3.85,2.07,0,.59.4,1.13,1.18,1.63.84.49,1.88.91,3.11,1.26,1.23.3,2.54.74,3.92,1.33,1.43.59,2.76,1.28,4,2.07,1.23.74,2.24,1.85,3.03,3.33.84,1.43,1.26,3.13,1.26,5.11,0,3.85-1.46,6.69-4.37,8.51-2.86,1.83-6.44,2.74-10.73,2.74-5.72,0-10.56-1.23-14.5-3.7Z"/>
</svg>