<svg width="766" height="250" viewBox="0 0 766 250" fill="none" xmlns="http://www.w3.org/2000/svg">
<g clip-path="url(#clip0_381_21)">
<rect width="766" height="250" fill="white"/>
<circle cx="258" cy="258" r="258" transform="matrix(-1 0 0 1 766 -266)" fill="#AAADAF"/>
<rect width="383" height="250" transform="matrix(-1 0 0 1 383 0)" fill="#E9EAEB"/>
<path d="M515 69L573 55L550 15L515 69Z" fill="#3C3F42"/>
<path d="M474.588 104.472V69.47H484.134L485.244 73.022C489.092 70.062 493.014 68.582 497.01 68.582C504.854 68.582 508.776 72.9234 508.776 81.606V104.472H497.602V84.936C497.602 82.7654 497.281 81.1127 496.64 79.978C495.998 78.794 494.74 78.202 492.866 78.202C490.35 78.202 487.982 79.0654 485.762 80.792V104.472H474.588Z" fill="white"/>
<path d="M465.814 100.032C462.41 103.485 457.994 105.212 452.568 105.212C447.141 105.212 442.701 103.485 439.248 100.032C435.844 96.5787 434.142 92.188 434.142 86.86C434.142 81.532 435.844 77.166 439.248 73.762C442.701 70.3087 447.141 68.582 452.568 68.582C457.994 68.582 462.41 70.3087 465.814 73.762C469.267 77.166 470.994 81.532 470.994 86.86C470.994 92.188 469.267 96.5787 465.814 100.032ZM447.24 93.816C448.424 95.5427 450.2 96.406 452.568 96.406C454.936 96.406 456.687 95.5427 457.822 93.816C459.006 92.04 459.598 89.7214 459.598 86.86C459.598 83.9987 459.006 81.7047 457.822 79.978C456.687 78.2514 454.936 77.388 452.568 77.388C450.2 77.388 448.424 78.2514 447.24 79.978C446.105 81.7047 445.538 83.9987 445.538 86.86C445.538 89.7214 446.105 92.04 447.24 93.816Z" fill="white"/>
<path fill-rule="evenodd" clip-rule="evenodd" d="M419.336 69.47V104.472H430.51V69.47H419.336Z" fill="white"/>
<path d="M405.306 105.212C401.803 105.212 399.016 104.299 396.944 102.474C394.872 100.599 393.836 98.0833 393.836 94.926V61.182L405.01 58V69.47H415.666L413.15 78.054H405.01V91.966C405.01 93.594 405.257 94.7533 405.75 95.444C406.293 96.0853 407.131 96.406 408.266 96.406C410.042 96.406 411.744 95.9127 413.372 94.926L416.48 102.474C413.767 104.299 410.042 105.212 405.306 105.212Z" fill="white"/>
<path d="M424.5 63C426.611 63 428.389 62.2775 429.833 60.8324C431.278 59.3295 432 57.5376 432 55.4566C432 53.3179 431.278 51.5549 429.833 50.1676C428.389 48.7225 426.611 48 424.5 48C422.389 48 420.611 48.7225 419.167 50.1676C417.722 51.6127 417 53.3757 417 55.4566C417 57.5954 417.722 59.3873 419.167 60.8324C420.611 62.2775 422.389 63 424.5 63Z" fill="#3C3F42"/>
<path d="M385.173 104.472L383.619 101.512C380.807 103.979 377.551 105.212 373.851 105.212C370.397 105.212 367.536 104.151 365.267 102.03C363.047 99.8594 361.937 97.0967 361.937 93.742C361.937 89.45 363.885 86.268 367.783 84.196C370.2 82.9134 373.283 82.198 377.033 82.05L382.583 81.828V81.458C382.583 78.3994 380.535 76.87 376.441 76.87C373.234 76.87 370.274 77.5854 367.561 79.016L364.083 71.986C368.621 69.7167 373.431 68.582 378.513 68.582C388.675 68.582 393.757 73.022 393.757 81.902V97.59C393.757 100.895 393.954 103.189 394.349 104.472H385.173ZM382.583 88.858L378.809 89.006C376.983 89.1047 375.602 89.4254 374.665 89.968C373.629 90.6587 373.111 91.67 373.111 93.002C373.111 95.4194 374.566 96.628 377.477 96.628C379.549 96.628 381.251 96.2087 382.583 95.37V88.858Z" fill="#3C3F42"/>
<path d="M337.811 104.472V69.47H347.283L348.467 73.022C351.772 70.062 354.929 68.582 357.939 68.582C360.109 68.582 362.033 69.174 363.711 70.358L359.789 79.534C358.21 78.5474 356.631 78.054 355.053 78.054C353.079 78.054 351.057 78.8434 348.985 80.422V104.472H337.811Z" fill="#3C3F42"/>
<path d="M323.78 105.212C320.278 105.212 317.49 104.299 315.418 102.474C313.346 100.599 312.31 98.0833 312.31 94.926V78.054H305.724V69.47H312.31V61.182L323.484 58V69.47H334.14L331.624 78.054H323.484V91.966C323.484 93.594 323.731 94.7533 324.224 95.444C324.767 96.0853 325.606 96.406 326.74 96.406C328.516 96.406 330.218 95.9127 331.846 94.926L334.954 102.474C332.241 104.299 328.516 105.212 323.78 105.212Z" fill="#3C3F42"/>
<path d="M272.607 101.512L276.011 93.52C279.168 95.592 282.523 96.628 286.075 96.628C289.578 96.628 291.329 95.8387 291.329 94.26C291.329 93.4214 290.762 92.706 289.627 92.114C288.492 91.522 287.111 90.9794 285.483 90.486C283.904 89.9434 282.301 89.3267 280.673 88.636C279.045 87.896 277.664 86.786 276.529 85.306C275.394 83.7767 274.827 81.9267 274.827 79.756C274.827 76.4014 276.11 73.7127 278.675 71.69C281.29 69.618 284.768 68.582 289.109 68.582C293.204 68.582 296.953 69.174 300.357 70.358V79.608C296.312 77.98 292.71 77.166 289.553 77.166C286.988 77.166 285.705 77.8567 285.705 79.238C285.705 79.83 286.1 80.3727 286.889 80.866C287.728 81.3594 288.764 81.7787 289.997 82.124C291.23 82.42 292.538 82.864 293.919 83.456C295.35 84.048 296.682 84.7387 297.915 85.528C299.148 86.268 300.16 87.378 300.949 88.858C301.788 90.2887 302.207 91.9907 302.207 93.964C302.207 97.812 300.752 100.649 297.841 102.474C294.98 104.299 291.403 105.212 287.111 105.212C281.388 105.212 276.554 103.979 272.607 101.512Z" fill="#3C3F42"/>
<path d="M248.654 105.212C246.483 105.212 244.337 104.669 242.216 103.584C240.095 102.499 238.467 100.673 237.332 98.108C236.444 95.9866 236 93.3226 236 90.116V69.47H247.174V89.45C247.174 90.9793 247.421 92.2126 247.914 93.15C248.901 94.926 250.553 95.814 252.872 95.814C254.993 95.814 256.769 95.1726 258.2 93.89V69.47H269.374V98.034C269.374 101.043 269.571 103.189 269.966 104.472H260.568L259.014 101.142C256.005 103.855 252.551 105.212 248.654 105.212Z" fill="#3C3F42"/>
<path d="M207.396 175C196.465 175 191 169.846 191 159.537C191 157.246 191.489 153.728 192.468 148.983L223.548 0H236.273L205.194 149.719C204.541 152.338 204.215 154.71 204.215 156.837C204.215 161.092 206.417 163.219 210.822 163.219C213.596 163.219 216.777 162.482 220.366 161.01V172.3C216.777 174.1 212.454 175 207.396 175Z" fill="#3C3F42"/>
<path d="M172.396 175C161.465 175 156 169.846 156 159.537C156 157.246 156.489 153.728 157.468 148.983L188.548 0H202.828L170.194 149.719C169.541 152.338 169.215 154.71 169.215 156.837C169.215 161.092 171.417 163.219 175.822 163.219C178.596 163.219 181.777 162.482 185.366 161.01V172.3C181.777 174.1 177.454 175 172.396 175Z" fill="#3C3F42"/>
<path d="M120 174.094L144.227 58H156.953L132.725 174.094H120Z" fill="#3C3F42"/>
<path d="M153.5 50C155.611 50 157.389 49.2775 158.833 47.8324C160.278 46.3295 161 44.5376 161 42.4566C161 40.3179 160.278 38.5549 158.833 37.1676C157.389 35.7225 155.611 35 153.5 35C151.389 35 149.611 35.7225 148.167 37.1676C146.722 38.6127 146 40.3757 146 42.4566C146 44.5954 146.722 46.3873 148.167 47.8324C149.611 49.2775 151.389 50 153.5 50Z" fill="#8E9194"/>
</g>
<defs>
<clipPath id="clip0_381_21">
<rect width="766" height="250" fill="white"/>
</clipPath>
</defs>
</svg>
