<svg width="766" height="250" viewBox="0 0 766 250" fill="none" xmlns="http://www.w3.org/2000/svg">
<g clip-path="url(#clip0_448_254)">
<rect width="766" height="250" fill="white"/>
<rect width="383" height="250" fill="#3C3F42"/>
<circle cx="260" cy="-10" r="260" fill="#8E9194"/>
<rect x="383" width="383" height="250" fill="#3C3F42"/>
<path d="M634 120C629.582 120 626 123.582 626 128C626 132.418 629.582 136 634 136C638.418 136 642 132.418 642 128C642 123.582 638.418 120 634 120Z" fill="#3C3F42"/>
<path fill-rule="evenodd" clip-rule="evenodd" d="M658 117.481L635 156L600 104L658 117.481ZM626 128C626 123.582 629.582 120 634 120C638.418 120 642 123.582 642 128C642 132.418 638.418 136 634 136C629.582 136 626 132.418 626 128Z" fill="white"/>
<path d="M370.76 104V-1.44001H381.8L411.24 42.88C415.72 49.7067 418.973 54.7733 421 58.08H421.32C421.96 56.9067 425.213 51.6267 431.08 42.24L458.76 -1.44001H469.8V104H457.96V36.32C457.96 28.1067 458.067 22.1333 458.28 18.4H457.96C455.827 22.4533 453.32 26.72 450.44 31.2L424.36 72.8H418.12L389.8 30.4C386.387 25.6 383.987 21.7067 382.6 18.72H382.28C382.493 22.0267 382.6 27.84 382.6 36.16V104H370.76ZM478.283 104L518.283 -1.76H526.443L566.763 104H553.963L543.563 75.68H501.163L490.763 104H478.283ZM504.843 65.76H539.723L528.843 35.36C526.496 28.96 524.416 22.88 522.602 17.12H522.283C521.216 20.32 519.083 26.4 515.883 35.36L504.843 65.76ZM575.229 104V-1.44001H595.069C604.669 -1.44001 612.295 0.159995 617.949 3.36C628.082 9.11999 633.149 18.6133 633.149 31.84C633.149 38.3467 631.709 44.16 628.829 49.28C625.949 54.4 621.522 58.3467 615.549 61.12C609.682 63.7867 602.482 65.12 593.949 65.12H587.069V104H575.229ZM587.069 55.2H594.909C601.095 55.2 606.215 54.1333 610.269 52C617.415 48.2667 620.989 41.5467 620.989 31.84C620.989 22.56 617.629 15.9467 610.909 12C607.069 9.65333 601.789 8.48 595.069 8.48H587.069V55.2Z" fill="#8E9194"/>
<path d="M335.875 101.04L339.279 93.0479C342.437 95.1199 345.791 96.1559 349.343 96.1559C352.846 96.1559 354.597 95.3665 354.597 93.7879C354.597 92.9492 354.03 92.2339 352.895 91.6419C351.761 91.0499 350.379 90.5072 348.751 90.0139C347.173 89.4712 345.569 88.8545 343.941 88.1639C342.313 87.4239 340.932 86.3139 339.797 84.8339C338.663 83.3045 338.095 81.4545 338.095 79.2839C338.095 75.9292 339.378 73.2405 341.943 71.2179C344.558 69.1459 348.036 68.1099 352.377 68.1099C356.472 68.1099 360.221 68.7019 363.625 69.8859V79.1359C359.58 77.5079 355.979 76.6939 352.821 76.6939C350.256 76.6939 348.973 77.3845 348.973 78.7659C348.973 79.3579 349.368 79.9005 350.157 80.3939C350.996 80.8872 352.032 81.3065 353.265 81.6519C354.499 81.9479 355.806 82.3919 357.187 82.9839C358.618 83.5759 359.95 84.2665 361.183 85.0559C362.417 85.7959 363.428 86.9059 364.217 88.3859C365.056 89.8165 365.475 91.5185 365.475 93.4919C365.475 97.3399 364.02 100.177 361.109 102.002C358.248 103.827 354.671 104.74 350.379 104.74C344.657 104.74 339.822 103.507 335.875 101.04Z" fill="white"/>
<path d="M299.052 104V68.9979H308.598L309.708 72.5499C313.556 69.5899 317.478 68.1099 321.474 68.1099C329.318 68.1099 333.24 72.4512 333.24 81.1339V104H322.066V84.4639C322.066 82.2932 321.745 80.6405 321.104 79.5059C320.462 78.3219 319.204 77.7299 317.33 77.7299C314.814 77.7299 312.446 78.5932 310.226 80.3199V104H299.052Z" fill="white"/>
<path d="M290.277 99.5599C286.873 103.013 282.458 104.74 277.031 104.74C271.605 104.74 267.165 103.013 263.711 99.5599C260.307 96.1065 258.605 91.7159 258.605 86.3879C258.605 81.0599 260.307 76.6939 263.711 73.2899C267.165 69.8365 271.605 68.1099 277.031 68.1099C282.458 68.1099 286.873 69.8365 290.277 73.2899C293.731 76.6939 295.457 81.0599 295.457 86.3879C295.457 91.7159 293.731 96.1065 290.277 99.5599ZM271.703 93.3439C272.887 95.0705 274.663 95.9339 277.031 95.9339C279.399 95.9339 281.151 95.0705 282.285 93.3439C283.469 91.5679 284.061 89.2492 284.061 86.3879C284.061 83.5265 283.469 81.2325 282.285 79.5059C281.151 77.7792 279.399 76.9159 277.031 76.9159C274.663 76.9159 272.887 77.7792 271.703 79.5059C270.569 81.2325 270.001 83.5265 270.001 86.3879C270.001 89.2492 270.569 91.5679 271.703 93.3439Z" fill="white"/>
<path d="M243.8 104V68.998H254.974V104H243.8Z" fill="white"/>
<path d="M249.5 63C251.611 63 253.389 62.2775 254.833 60.8324C256.278 59.3295 257 57.5376 257 55.4566C257 53.3179 256.278 51.5549 254.833 50.1676C253.389 48.7225 251.611 48 249.5 48C247.389 48 245.611 48.7225 244.167 50.1676C242.722 51.6127 242 53.3757 242 55.4566C242 57.5954 242.722 59.3873 244.167 60.8324C245.611 62.2775 247.389 63 249.5 63Z" fill="#3C3F42"/>
<path d="M221.348 121.538C216.02 121.538 211.851 120.551 208.842 118.578C205.882 116.654 204.402 114.163 204.402 111.104C204.402 109.18 204.994 107.503 206.178 106.072C207.411 104.641 208.891 103.63 210.618 103.038C209.088 102.199 208.324 100.769 208.324 98.746C208.324 96.1806 209.878 94.0346 212.986 92.308C211.012 91.272 209.483 89.7673 208.398 87.794C207.362 85.8206 206.844 83.65 206.844 81.282C206.844 77.7793 208.126 74.7206 210.692 72.106C213.257 69.442 217.031 68.11 222.014 68.11C225.072 68.11 227.514 68.6526 229.34 69.738C229.636 69.886 229.932 69.812 230.228 69.516C232.448 67.444 235.556 66.408 239.552 66.408C240.44 66.408 241.278 66.4573 242.068 66.556L239.996 74.252C238.91 74.0053 237.924 73.882 237.036 73.882C236.197 73.882 235.506 73.9806 234.964 74.178C236.641 76.398 237.48 78.988 237.48 81.948C237.48 85.944 236.074 89.1506 233.262 91.568C230.45 93.936 226.774 95.12 222.236 95.12C220.608 95.12 219.276 94.972 218.24 94.676C218.042 95.2186 217.944 95.7366 217.944 96.23C217.944 97.3153 218.733 98.1046 220.312 98.598C221.89 99.0913 223.79 99.486 226.01 99.782C228.279 100.029 230.548 100.399 232.818 100.892C235.087 101.336 237.011 102.298 238.59 103.778C240.168 105.209 240.958 107.133 240.958 109.55C240.958 112.905 239.256 115.741 235.852 118.06C232.497 120.379 227.662 121.538 221.348 121.538ZM222.976 113.99C225.097 113.99 226.873 113.719 228.304 113.176C229.734 112.633 230.45 111.844 230.45 110.808C230.45 109.575 229.512 108.687 227.638 108.144C225.763 107.651 223.518 107.256 220.904 106.96C218.289 106.664 216.562 106.294 215.724 105.85C214.737 106.738 214.244 107.823 214.244 109.106C214.244 110.586 215.008 111.77 216.538 112.658C218.116 113.546 220.262 113.99 222.976 113.99ZM222.162 86.98C223.642 86.98 224.826 86.536 225.714 85.648C226.651 84.7106 227.12 83.4033 227.12 81.726C227.12 80.2953 226.651 79.0373 225.714 77.952C224.826 76.8173 223.592 76.25 222.014 76.25C220.583 76.25 219.424 76.7186 218.536 77.656C217.648 78.544 217.204 79.876 217.204 81.652C217.204 83.0826 217.623 84.3406 218.462 85.426C219.35 86.462 220.583 86.98 222.162 86.98Z" fill="white"/>
<path d="M152 104.253L159.628 68.897H164.205L163.061 75.998H163.213C164.969 72.1839 168.871 68 173.587 68C178.531 68 180.73 70.8996 181.849 71.5972L178.038 75.699C177.173 75.2505 175.071 73.2323 172.367 73.2323C169.977 73.2323 167.714 74.6027 165.578 77.3434C163.442 80.0842 161.815 84.0956 160.696 89.3778L157.492 104.253H152Z" fill="white"/>
<path d="M188.362 105C184.091 105 180.607 103.679 177.912 101.038C175.217 98.3973 173.869 94.7098 173.869 89.9758C173.869 83.697 175.624 78.4646 179.133 74.2788C182.641 70.0929 187.04 68 192.329 68C196.143 68 199.042 69.0465 201.025 71.1394C203.008 73.2323 204 75.998 204 79.4364C204 82.1273 203.466 84.7683 202.398 87.3596L179.514 87.6586C179.412 88.5556 179.361 89.2532 179.361 89.7515C179.361 93.0902 180.226 95.7064 181.955 97.6C183.684 99.4438 185.972 100.366 188.82 100.366C191.922 100.366 195.202 99.4438 198.66 97.6L200.186 101.636C196.677 103.879 192.736 105 188.362 105ZM180.277 83.398L197.821 83.1737C198.228 81.7286 198.432 80.4081 198.432 79.2121C198.432 77.3683 197.923 75.7987 196.906 74.503C195.889 73.2074 194.185 72.5596 191.795 72.5596C189.049 72.5596 186.583 73.6061 184.396 75.699C182.26 77.7919 180.887 80.3582 180.277 83.398Z" fill="white"/>
</g>
<defs>
<clipPath id="clip0_448_254">
<rect width="766" height="250" fill="white"/>
</clipPath>
</defs>
</svg>
