<svg width="766" height="250" viewBox="0 0 766 250" fill="none" xmlns="http://www.w3.org/2000/svg">
<g clip-path="url(#clip0_372_38)">
<rect width="766" height="250" fill="white"/>
<rect width="383" height="250" fill="#3C3F42"/>
<circle cx="260" cy="-10" r="260" fill="#8E9194"/>
<rect x="383" width="383" height="250" fill="white"/>
<path d="M333.711 154.182C322.349 166.061 307.612 172 289.5 172C271.388 172 256.568 166.061 245.042 154.182C233.681 142.303 228 127.2 228 108.873C228 90.5454 233.681 75.5273 245.042 63.8182C256.568 51.9394 271.388 46 289.5 46C307.612 46 322.349 51.9394 333.711 63.8182C345.237 75.5273 351 90.5454 351 108.873C351 127.2 345.237 142.303 333.711 154.182ZM271.717 132.8C275.669 138.739 281.596 141.709 289.5 141.709C297.404 141.709 303.249 138.739 307.036 132.8C310.988 126.691 312.964 118.715 312.964 108.873C312.964 99.0303 310.988 91.1394 307.036 85.2C303.249 79.2606 297.404 76.2909 289.5 76.2909C281.596 76.2909 275.669 79.2606 271.717 85.2C267.93 91.1394 266.036 99.0303 266.036 108.873C266.036 118.715 267.93 126.691 271.717 132.8Z" fill="white"/>
<path d="M140 168V0H178.351V135.114H235V168H140Z" fill="white"/>
<path d="M477.874 191C462.096 191 449.339 185.024 439.603 173.071C429.868 161.118 425 146.303 425 128.626C425 110.781 429.868 95.8822 439.603 83.9293C449.339 71.9764 462.18 66 478.126 66C493.904 66 506.661 71.9764 516.397 83.9293C526.132 95.8822 531 110.781 531 128.626C531 146.303 526.132 161.118 516.397 173.071C506.661 185.024 493.82 191 477.874 191ZM449.675 164.99C456.892 174.249 466.292 178.879 477.874 178.879C489.456 178.879 498.856 174.249 506.074 164.99C513.291 155.562 516.9 143.441 516.9 128.626C516.9 113.643 513.291 101.522 506.074 92.2626C499.024 82.835 489.708 78.1212 478.126 78.1212C466.544 78.1212 457.144 82.835 449.926 92.2626C442.709 101.522 439.1 113.643 439.1 128.626C439.1 143.441 442.625 155.562 449.675 164.99Z" fill="#3C3F42"/>
<path d="M449.675 164.99C456.892 174.249 466.292 178.879 477.874 178.879C489.456 178.879 498.856 174.249 506.074 164.99C513.291 155.562 516.9 143.441 516.9 128.626C516.9 113.643 513.291 101.522 506.074 92.2626C499.024 82.835 489.708 78.1212 478.126 78.1212C466.544 78.1212 457.144 82.835 449.926 92.2626C442.709 101.522 439.1 113.643 439.1 128.626C439.1 143.441 442.625 155.562 449.675 164.99Z" fill="white"/>
<path d="M512 103L454 117L477 157L512 103Z" fill="#3C3F42"/>
<path fill-rule="evenodd" clip-rule="evenodd" d="M395.652 181.075C390.45 180.115 385.504 179.362 380.815 178.819C374.705 178.11 369.643 176.605 365.628 174.302C361.613 171.822 359.605 168.634 359.605 164.738C359.605 159.247 362.311 153.668 367.723 148C372.96 149.948 378.546 150.922 384.481 150.922C388.426 150.922 392.15 150.582 395.652 149.901V181.075Z" fill="white"/>
<path d="M383.178 250C367.698 250 356.135 246.927 346.881 240.782C337.627 234.807 333 226.357 333 215.431C333 201.945 340.487 191.276 355.462 183.423C349.741 180.18 346.881 175.144 346.881 168.315C346.881 159.951 350.835 151.842 358.743 143.989C346.797 135.624 340.824 123.589 340.824 107.884C340.824 95.593 344.862 85.4358 352.938 77.4124C361.183 69.389 371.11 65.3773 382.719 65.3773C390.459 65.3773 397.694 66.8284 404.424 69.7305C405.602 70.2426 406.443 70.2426 406.948 69.7305C413.005 63.2435 420.576 60 429.662 60C432.186 60 434.457 60.2561 436.476 60.7682L432.69 72.5472C430.671 72.035 428.652 71.779 426.633 71.779C421.922 71.779 417.716 73.1446 414.014 75.876C423.773 84.2408 428.652 94.9955 428.652 108.14C428.652 120.943 424.53 131.357 416.286 139.38C408.21 147.403 397.525 151.415 384.233 151.415C378.513 151.415 373.129 150.476 368.081 148.598C362.865 154.061 360.257 159.438 360.257 164.73C360.257 168.486 362.192 171.559 366.062 173.949C369.932 176.168 374.811 177.619 380.7 178.302C386.589 178.985 392.898 180.009 399.629 181.375C406.359 182.74 412.668 184.362 418.557 186.24C424.446 187.947 429.325 191.105 433.195 195.714C437.065 200.323 439 206.128 439 213.127C439 224.564 433.952 233.526 423.857 240.013C413.93 246.671 399.835 250 383.178 250ZM383.178 237.963C396.47 237.963 407.789 235.916 414.519 231.307C421.417 226.869 424.867 221.235 424.867 214.407C424.867 209.798 423.605 206.042 421.081 203.14C418.725 200.238 415.276 198.019 410.733 196.482C406.19 194.946 401.648 193.836 397.105 193.154C392.562 192.471 387.094 191.617 380.7 190.593C374.475 189.739 369.427 188.801 365.557 187.776C352.602 195.458 346.124 203.994 346.124 213.383C346.124 221.065 349.657 227.125 356.724 231.563C363.79 236.002 371.736 237.963 383.178 237.963ZM384.486 139.124C393.235 139.124 400.386 136.393 405.938 130.93C411.49 125.467 414.267 117.871 414.267 108.14C414.267 99.0925 411.406 91.752 405.686 86.1186C400.133 80.4852 393.067 77.6685 384.486 77.6685C375.568 77.6685 368.417 80.4852 363.033 86.1186C357.649 91.5813 354.957 98.8365 354.957 107.884C354.957 117.273 357.649 124.87 363.033 130.674C368.417 136.307 375.568 139.124 384.486 139.124Z" fill="#3C3F42"/>
<path d="M383.178 237.963C396.47 237.963 407.789 235.916 414.519 231.307C421.417 226.869 424.867 221.235 424.867 214.407C424.867 209.798 423.605 206.042 421.081 203.14C418.725 200.238 415.276 198.019 410.733 196.482C406.19 194.946 401.648 193.836 397.105 193.154C392.562 192.471 387.094 191.617 380.7 190.593C374.475 189.739 369.427 188.801 365.557 187.776C352.602 195.458 346.124 203.994 346.124 213.383C346.124 221.065 349.657 227.125 356.724 231.563C363.79 236.002 371.736 237.963 383.178 237.963Z" fill="white"/>
<path d="M384.486 139.124C393.235 139.124 400.386 136.393 405.938 130.93C411.49 125.467 414.267 117.871 414.267 108.14C414.267 99.0925 411.406 91.752 405.686 86.1186C400.133 80.4852 393.067 77.6685 384.486 77.6685C375.568 77.6685 368.417 80.4852 363.033 86.1186C357.649 91.5813 354.957 98.8365 354.957 107.884C354.957 117.273 357.649 124.87 363.033 130.674C368.417 136.307 375.568 139.124 384.486 139.124Z" fill="white"/>
<path d="M731.558 100.444V65.4074H741.175L742.293 68.963C746.17 66 750.121 64.5185 754.146 64.5185C762.049 64.5185 766 68.8642 766 77.5556V100.444H754.743V80.8889C754.743 78.716 754.42 77.0617 753.774 75.9259C753.128 74.7407 751.86 74.1481 749.972 74.1481C747.437 74.1481 745.051 75.0123 742.815 76.7407V100.444H731.558Z" fill="#3C3F42"/>
<path d="M710.429 118C705.061 118 700.861 117.012 697.83 115.037C694.848 113.111 693.357 110.617 693.357 107.556C693.357 105.63 693.953 103.951 695.146 102.519C696.388 101.086 697.879 100.074 699.619 99.4815C698.078 98.642 697.308 97.2099 697.308 95.1852C697.308 92.6173 698.873 90.4691 702.005 88.7407C700.017 87.7037 698.476 86.1975 697.382 84.2222C696.339 82.2469 695.817 80.0741 695.817 77.7037C695.817 74.1975 697.109 71.1358 699.694 68.5185C702.278 65.8518 706.08 64.5185 711.1 64.5185C714.181 64.5185 716.641 65.0617 718.48 66.1481C718.778 66.2963 719.077 66.2222 719.375 65.9259C721.611 63.8518 724.743 62.8148 728.768 62.8148C729.663 62.8148 730.508 62.8642 731.303 62.963L729.216 70.6667C728.122 70.4198 727.128 70.2963 726.234 70.2963C725.389 70.2963 724.693 70.3951 724.146 70.5926C725.836 72.8148 726.681 75.4074 726.681 78.3704C726.681 82.3704 725.264 85.5802 722.431 88C719.599 90.3704 715.896 91.5556 711.323 91.5556C709.683 91.5556 708.341 91.4074 707.298 91.1111C707.099 91.6543 706.999 92.1728 706.999 92.6667C706.999 93.7531 707.795 94.5432 709.385 95.037C710.976 95.5309 712.889 95.9259 715.126 96.2222C717.412 96.4691 719.698 96.8395 721.984 97.3333C724.27 97.7778 726.209 98.7407 727.799 100.222C729.39 101.654 730.185 103.58 730.185 106C730.185 109.358 728.47 112.198 725.041 114.519C721.661 116.84 716.79 118 710.429 118ZM712.069 110.444C714.206 110.444 715.995 110.173 717.437 109.63C718.878 109.086 719.599 108.296 719.599 107.259C719.599 106.025 718.654 105.136 716.766 104.593C714.877 104.099 712.616 103.704 709.982 103.407C707.347 103.111 705.608 102.741 704.763 102.296C703.769 103.185 703.272 104.272 703.272 105.556C703.272 107.037 704.042 108.222 705.583 109.111C707.173 110 709.335 110.444 712.069 110.444ZM711.249 83.4074C712.74 83.4074 713.933 82.963 714.827 82.0741C715.772 81.1358 716.244 79.8272 716.244 78.1481C716.244 76.716 715.772 75.4568 714.827 74.3704C713.933 73.2346 712.69 72.6667 711.1 72.6667C709.658 72.6667 708.49 73.1358 707.596 74.0741C706.701 74.963 706.254 76.2963 706.254 78.0741C706.254 79.5062 706.676 80.7654 707.521 81.8519C708.416 82.8889 709.658 83.4074 711.249 83.4074Z" fill="#3C3F42"/>
<path d="M681.498 100.444V65.4074H692.755V100.444H681.498ZM691.935 59.4074C690.643 60.642 689.052 61.2593 687.164 61.2593C685.275 61.2593 683.685 60.642 682.392 59.4074C681.1 58.1728 680.454 56.642 680.454 54.8148C680.454 53.037 681.1 51.5309 682.392 50.2963C683.685 49.0617 685.275 48.4444 687.164 48.4444C689.052 48.4444 690.643 49.0617 691.935 50.2963C693.227 51.4815 693.873 52.9876 693.873 54.8148C693.873 56.5926 693.227 58.1235 691.935 59.4074Z" fill="#3C3F42"/>
<path d="M649.572 97.4815L653.002 89.4815C656.182 91.5556 659.562 92.5926 663.14 92.5926C666.669 92.5926 668.434 91.8025 668.434 90.2222C668.434 89.3827 667.862 88.6667 666.719 88.0741C665.576 87.4815 664.184 86.9383 662.544 86.4444C660.954 85.9012 659.338 85.2839 657.698 84.5926C656.058 83.8518 654.667 82.7407 653.523 81.2593C652.38 79.7284 651.809 77.8765 651.809 75.7037C651.809 72.3457 653.101 69.6543 655.685 67.6296C658.32 65.5556 661.823 64.5185 666.197 64.5185C670.322 64.5185 674.099 65.1111 677.529 66.2963V75.5556C673.453 73.9259 669.825 73.1111 666.644 73.1111C664.06 73.1111 662.768 73.8025 662.768 75.1852C662.768 75.7778 663.165 76.321 663.961 76.8148C664.805 77.3086 665.849 77.7284 667.092 78.0741C668.334 78.3704 669.651 78.8148 671.043 79.4074C672.484 80 673.826 80.6914 675.069 81.4815C676.311 82.2222 677.33 83.3333 678.125 84.8148C678.97 86.2469 679.393 87.9506 679.393 89.9259C679.393 93.7778 677.926 96.6173 674.994 98.4444C672.111 100.272 668.508 101.185 664.184 101.185C658.419 101.185 653.548 99.9506 649.572 97.4815Z" fill="#3C3F42"/>
<path d="M649.746 86.2963H627.38C627.48 88.3704 628.325 89.9506 629.915 91.037C631.555 92.0741 633.618 92.5926 636.103 92.5926C639.383 92.5926 642.415 91.8025 645.198 90.2222L648.478 97.7778C644.701 100.049 640.278 101.185 635.208 101.185C628.698 101.185 623.877 99.4815 620.745 96.0741C617.664 92.6173 616.123 88.3704 616.123 83.3333C616.123 77.8519 617.589 73.358 620.522 69.8519C623.454 66.2963 627.604 64.5185 632.972 64.5185C638.24 64.5185 642.34 66.2222 645.273 69.6296C648.255 73.037 649.746 77.7284 649.746 83.7037V86.2963ZM627.231 78.8889H638.488C638.439 77.1605 637.942 75.7284 636.997 74.5926C636.053 73.4074 634.637 72.8148 632.748 72.8148C631.009 72.8148 629.642 73.4074 628.648 74.5926C627.703 75.7778 627.231 77.2099 627.231 78.8889Z" fill="#3C3F42"/>
<path d="M599.247 101.185C592.935 101.185 587.816 99.5802 583.89 96.3704C579.963 93.1605 578 88.7654 578 83.1852C578 77.7037 579.864 73.2346 583.591 69.7778C587.319 66.2716 592.165 64.5185 598.129 64.5185C599.719 64.5185 601.036 64.5926 602.08 64.7407V48H613.337V98.4444C609.61 100.272 604.913 101.185 599.247 101.185ZM598.8 92.0741C600.191 92.0741 601.285 91.9506 602.08 91.7037V73.8519C601.036 73.7037 599.918 73.6296 598.725 73.6296C595.892 73.6296 593.631 74.4691 591.941 76.1481C590.301 77.7778 589.481 80.0741 589.481 83.037C589.481 85.9012 590.351 88.1235 592.09 89.7037C593.879 91.2839 596.116 92.0741 598.8 92.0741Z" fill="#3C3F42"/>
<path d="M532 101.253L539.628 65.897H544.205L543.061 72.998H543.213C544.969 69.1839 548.871 65 553.587 65C558.531 65 560.73 67.8996 561.849 68.5972L558.038 72.699C557.173 72.2505 555.071 70.2323 552.367 70.2323C549.977 70.2323 547.714 71.6027 545.578 74.3434C543.442 77.0842 541.815 81.0956 540.696 86.3778L537.492 101.253H532Z" fill="#8E9194"/>
<path d="M568.362 102C564.091 102 560.607 100.679 557.912 98.0384C555.217 95.3973 553.869 91.7098 553.869 86.9758C553.869 80.697 555.624 75.4646 559.133 71.2788C562.641 67.0929 567.04 65 572.329 65C576.143 65 579.042 66.0465 581.025 68.1394C583.008 70.2323 584 72.998 584 76.4364C584 79.1273 583.466 81.7683 582.398 84.3596L559.514 84.6586C559.412 85.5556 559.361 86.2532 559.361 86.7515C559.361 90.0902 560.226 92.7064 561.955 94.6C563.684 96.4438 565.972 97.3657 568.82 97.3657C571.922 97.3657 575.202 96.4438 578.66 94.6L580.186 98.6364C576.677 100.879 572.736 102 568.362 102ZM560.277 80.398L577.821 80.1737C578.228 78.7286 578.432 77.4081 578.432 76.2121C578.432 74.3683 577.923 72.7987 576.906 71.503C575.889 70.2074 574.185 69.5596 571.795 69.5596C569.049 69.5596 566.583 70.6061 564.396 72.699C562.26 74.7919 560.887 77.3582 560.277 80.398Z" fill="#8E9194"/>
</g>
<defs>
<clipPath id="clip0_372_38">
<rect width="766" height="250" fill="white"/>
</clipPath>
</defs>
</svg>
