<?xml version="1.0" encoding="UTF-8"?>
<svg id="Layer_1" xmlns="http://www.w3.org/2000/svg" version="1.1" viewBox="0 0 120 120">
  <!-- Generator: Adobe Illustrator 29.4.0, SVG Export Plug-In . SVG Version: 2.1.0 Build 152)  -->
  <defs>
    <style>
      .st0 {
        fill: #8e9194;
      }
    </style>
  </defs>
  <path class="st0" d="M17.14,0C7.69,0,0,7.69,0,17.14v85.71c0,9.46,7.69,17.14,17.14,17.14h26.3v-39.05h-14.14v-20.95h14.14v-9.03c0-23.33,10.55-34.15,33.48-34.15,4.34,0,11.84.86,14.92,1.71v18.96c-1.61-.16-4.42-.27-7.93-.27-11.25,0-15.59,4.26-15.59,15.32v7.45h22.39l-3.86,20.95h-18.56v39.05h34.55c9.45,0,17.14-7.69,17.14-17.14V17.14C120,7.69,112.31,0,102.86,0H17.14Z"/>
</svg>