<?xml version="1.0" encoding="UTF-8"?>
<svg id="Layer_1" xmlns="http://www.w3.org/2000/svg" version="1.1" viewBox="0 0 120 120">
  <!-- Generator: Adobe Illustrator 29.4.0, SVG Export Plug-In . SVG Version: 2.1.0 Build 152)  -->
  <defs>
    <style>
      .st0 {
        fill: #8e9194;
      }
    </style>
  </defs>
  <path class="st0" d="M17.14,0C7.69,0,0,7.69,0,17.14v85.71c0,9.45,7.69,17.14,17.14,17.14h85.71c9.45,0,17.14-7.69,17.14-17.14V17.14c0-9.46-7.69-17.14-17.14-17.14H17.14ZM96.72,22.5l-27.8,31.77,32.71,43.23h-25.61l-20.04-26.22-22.96,26.22h-12.72l29.73-33.99L18.67,22.5h26.25l18.13,23.97,20.95-23.97h12.72ZM86.6,89.89L41.09,29.71h-7.58l46.02,60.19h7.07Z"/>
</svg>