<?xml version="1.0" encoding="UTF-8"?>
<svg xmlns="http://www.w3.org/2000/svg" version="1.1" viewBox="0 0 1400 706">
  <!-- Generator: Adobe Illustrator 29.4.0, SVG Export Plug-In . SVG Version: 2.1.0 Build 152)  -->
  <defs>
    <style>
      .st0 {
        fill: none;
        stroke: #fff;
        stroke-linejoin: round;
      }

      .st1 {
        display: none;
      }

      .st2 {
        fill: #ff6a5c;
      }
    </style>
  </defs>
  <g id="contour" class="st1">
    <path class="st0" d="M654.42,171.77c3.94.48,4.33,2.51,4.72,4.55.29,1.53.59,3.07,2.38,3.97,1.41.31,2.98.52,4.55.72,2.93.39,5.87.77,7.76,1.83,3.03,1.81,6.54,4.02,10.2,2.78,3.57-1.13,4.33,1.26,5.14,3.79.49,1.53,1.53,5.01,3.87,4.06,1.67-.68,5.55-3.7,7.75-3.37,3.05.97,6.2,1.24,9.22,1.49,3.37.28,6.58.55,9.27,1.78,2.1,3.47,7.4,5.25,11.52,4.98,3.06-.39,4.76-1.13,6.01-.06,2.61,3.34,7.12,6.25,9.47,9.45.58.99-.63,4.24-.31,4.95,2.03,1.63,5.67-.23,6.83,3.83,2.85,1.81,4.32.82,5.58-.04,1.17-.79,2.16-1.46,3.91.3,1.36,1.25.87,3.3,2.33,4.52,2.7,1.84,5.97,3.07,9.27,4.31,5.65,2.12,11.39,4.28,14.51,9.61.84,1.78,1.07,4.18,1.29,6.49.15,1.53.29,3.02.61,4.26-.06.03-2.54,2.7-2.65,3.61-.42,4.85-3.76,4.45-4.09,7.31.01,1.23-1.18,4.97-1.29,5.31-.87-.39-3.56-.33-4.53.82-3.05,1.69-6.6,2.97-1.41,5.53,1.99,1.31,6.43,2.38,4.97,5.61-.86,3.13,4.63,6.14,6.35,3.11.36-.85,1.11-1.4,1.97-1.63,2.7-.75,5.15,3.7,7.52.74.89-1.83,7.24,2.87,8.18,3.7,1.21,1.55,3.26.86,4.78,1.68,2.27,1.95,5.89,3.54,8.6,4.37,1.01.5,1.85,2.54,2.59,3.54h3.02l5.82-5.31c.45-3.51,2.39-7.7,6.5-7.79,2.06-.27,4.86-2.05,6.52-1.8,1.53,1.27,4.52-.61,6.3-1.68,5.24-4.82,12.67,2.96,17.5-.63,1.51-1.34-.48-4.28,1.62-5.21,2.24-.71,7.32-.32,8.05-1.15,1.56-1.79,3.01-5.72,3.74-8.61.26-1.67.57-3.23,2.16-4.15,3.53-3.11,7.06-5.75,11.12-8.08l2.16-4.21c5.17-.17,11.69,1.86,16.18,4.66l3.45-3.77c3.9,1.54,8.88,2.53,13.36,2.66,2.05.2,7.6,3.28,7.76,3.32-.87-1.46-1.13-4.79-1.95-6.6-.67-1.2-1.92-2.39-2.3-3.71-.67-1.7,2.69-3.52,2.1-5.41,0,0,5.38-.67,5.39-.67l3.45-2.43s5.38,5.76,5.39,5.76c4.12-1.61,6.04-1.3,8.68-.89,1.21.19,2.6.41,4.4.47,1.46-.2,2.91-.62,4.27-1.16,2.35-1.42,4.65-2.28,6.79.73,1.73,1.26,2.6-.04,3.76,2.53h.01c1.16,1.51,6.52,5.38,7.24,5.85-.04,1.54-2.08,4.07-1.3,5.76.45,1.1,1.47,1.99,2.14,2.94h.01c1.33,3.25,1.29,8.47,2.82,11.46.96.82,1.84,1.92,2.73,3.03,2.25,2.82,4.57,5.74,8.57,4.42h.01c.42-.16,1.08-.75,1.22-1.02-.01,0-1.75-2.75-1.75-2.76.98-1.57,1.32-2.63,1.75-6.32-.37-5.76,1.62-6.31,3.62-6.86,1.78-.49,3.56-.99,3.71-5.1,0-3.11-.86-9.31,1.29-11.52,2.16-2.22,1.73-4.87,5.61-4.87,7.49.4,12.78-1.08,18.04,5.14,1.79,2.11,4.13,4.88,6.55,5.49,1.53.35,2.22,2.67,3.25,3.82,1.24,1.51,3.7,1.12,5.15,0,2.22-1.71,5.26-4.23,8.28-3.25,1.95.64,4.35,1.42,8.57-.66,2.29-.74,3.59.29,4.02,2.46,3.76,7.99,11.97,11.78,16.45,19.12,1.79,1.56.82,4.57,1.75,6.36,1.22,1.41,4.22-.26,5.69.57,3.14,1.12,1.25,9.65,5.06,10.2,2.29-1.36,3.55,1.2,3.46,3.09,0,1.78,2.16,7.53,2.59,9.3.87,2.29,4.26,1.32,6.04.45,5.78-2.59,8.06-9.75,13.17-5.64.82.6,1.81.51,3.04.39,5.89-1.36,8.52,4.62,14.42.37,4.43-4.6,5.01,1.99,8.63-.67.54-.33,1.87-.9,2.36-1.18h.01c1.18-.81,2.87,1.71,4.07,2.6,3.5,2.26.28,7.79,4.62,7.76,9.89-1.94,2.54,6.05,15.33.39,1.69.41,1.84,5.03,2.78,6.35,2.22,3.45,6.78,1.71,9.63-.35,11.21-6.72,3.32,3.15,6.96,7.71,1.43,5.51-5.58,15.67-6.96,20.34v7.53c0,2.66.86,5.76,2.16,7.53,1.4,3.17.65,8.35-1.94,10.71h-.01c-2.88,2.24-7.75-2.88-10.13-.07-.41.87-.99,1.73-1.83,2.2-4.11,1.03-6.77-3.96-8.38,2.88-.95,2.81-2.76,3.99-4.23,5.99-1.53,3.14-1.71,8.89-2.38,11.97l6.45,3.99c2.9,1.76,10.72,3.79,13.52,6.33,1.82,1.52,2.7,3.72,5.17,4.36,3.2.2,3.6,2.57,3.26,5.15-.32,6.91,4.48-.2,7.93,8.82,1.77,1.99,3.47-2.74,5.35-2.06,4.56,2.28,8-2.09,13.84.64,3.67,1.06,11.31,3.27,9.16,8.2-2.8,3.59.09,4.93,2.57,7.03,1.96,1.83.05,4.26.5,6.11,1.13.97,4.73,2.96,6.32,1.18,2.17-2.6,3.34-6.1,7.86-4.57,3.21.91,4.61.61,5.18,3.54,1.87,7.01,6.31-.46,9.56-1.57,4.45-.97,1.49,6.2,2.64,8.15,2.91,10.06,9.66-3.01,13.8-.95.32,9.25,10.07-1.06,13.47-1.7,14.44,2.77,3.21,4.58,6.3,8.3,2.13,1.99,6.35,3.07,7.08,6.09-.24,4.64,4.88,8.92,9.26,7.28,2.06-1.47,3.04-4.42,6.02-2.6,2.25,1.57,4.67,1.26,7.74,1.37,1.87.09,2.35,1.19,3.48,2.61,1.44,1.96,4.08,3.73,5.17,5.76l-3.8,2.69s.19,4.57.94,6.88c-.71,5.8-5.11,11.22-11.37,14.37-3.45,1.78-8.62,8.42-8.62,8.42,0,0-3.89,6.64-9.06,6.19-8-1.26-3.59,7-12.82,2.37-3.03-1-2.37,2.25-3.58,4.72-1.29,2.67-1.29,5.76-.86,11.52-.42,7.08,6.33,12.46,2.92,19.1.71,4.17,4.26,6.55,8.31,9.26,4.97,2.28.91-6.74,6.04-6.19,0,0,3.02,2.66,3.44,5.31.43,2.66,3.89,3.1,4.75-.44.86-3.54,3.02-.45,5.18,1.77,3.7,2.3,2.77,11.02-1.57,10.04-.84,1.13-1.08,1.08-1.23,2.37l.59,1.15.43.15-.09,1.18c2.52,6.29,9.38,9.46,6.9,16.99,2.88,5.41,10.44,5.34,15.31,8.35.44.91.47,2.74.41,3.72l.56.4c11.08.58,4.65,2.81,11.78,7.79,6.04,4.03,12.15,5.38,18.78,8.31l.16.94,6.25,1.92.75,1.57.75.09.22-2.02.71-.47.83,1.57-.8,2.13.67.73.88.17c.77-.32,1.53-1.99,2.06-2.64l.03,1.29-1.02,1.65,1.77,1.08c.16-.4.61-1.88.92-2.1l1.68,2.24-1.38,2.49-2.09.02-.82,1.18c.39.24.75.52,1.11.8l1.46-.11,1.32,1.53,1.52-2.87-.36-1.61.34-.63,1.19.24c.83,1.12.23,3.68.11,4.93l-.66.34-.16.52.74.54,1.12-.97.78.8-.55,2.6.47.66.73-.54.85.62,1.16-.27.47-.69,1.12.36c.16.3.28.63.36.94-.79,1.08-.44,1.93.15,3.14-1.23,2.28,1.23,3.46,2.01,5.37l-.73,1.35.3.52c2.9.1,4.23,1.67,6.92,2.17l.67.67-.86,2.01-1.14.19-.89-1.44c-1.64,2.23-2.7,4.71-4.66,6.7l1.05,1.98c-.85,3.14-1.01,5.76-4.9,6.29-.53,2.19-.41,1.72-1.85,3.43-.02.1.16.87.2,1.01-3.54,1.57-2.54,5.47-.46,8.11-.58,1.58-.51,2.53-.55,4.29l-1.71,1.57c-.79,3.22-.18,6.65.07,9.94l-1.38,2.17-.03,2.3c-1.39,1.42-1.1.79-1.68,2.62-3.89,3.14-5.76-2.38-8.59-3.88-5.96-3.25-8.7,3.37-11.43,7.73-1.64,2.57-3.22,5.2-4.88,7.76-5.39,7.11-7.93-6.73-10.63-9.95-6.52-3.87-14.22-1.81-20.19.77l-.48-.66-3.74-1.05-.55-2.06-.72-.67-1.35.59-.56-1.75-1.64-.13c-.21-.89-.93-2.14-1.64-2.69l-1.78-.02.43-.86-.24-.6-1.86.63-1.32-3.05-.7.1-1.11.91-3.54-3.65-.32-2.38-.84.41-.44-1.69-1.07-.04-.23-.51.48-.99-.77-1.12.49-1.26-.6-.79-1.13-.04c-.16.09-.32.27-.38.46-3.74,1.14-7.9-2.71-11.83-2.58-8.72.87-8.32,1.08-14.05-5.66l-3.9,1.05-1.47,5.42-2.84,1.6c-5.67-2.77-9.99-.78-15.96-1.95-6.73,1.96-14.72,1.86-19.61-3.86h-.01c-2.26-1.95-4.73-3.55-7.44-4.81-6.94-4.08-11.72-.61-17.79-4.32-2.33-1.44-4.5-3.41-6.99-4.53-2.83-1.36-5.71-2.99-8.15-5.12-1.87-3.07-10.23-11.53-7.84-14.72l1.13-.21c.51-.68.93-1.39,1.31-2.09,3.41-7.43,6.94-2.76,9.73-5.87-.28-2.04-3.49-4.05-4.68-5.58h-1.28l-4.4,2.72c-7.24.05-7.15-8.03-18.94-3.43-2.29-.59-4.41-1.52-5.77-3.54-.2-2.63-1.07-4.16-1.69-6.48h-.01c-4.43-2.86-10.32-2.38-14.84-4.98-3.69-3.15-5.42-7.6-11.12-7.12-.77,1.15-1.73,2.23-2.63,3.27-4.29,5.22-6.6,3.66-11.04.59-5.45-2.08-8.45-10.68-14.96-8.66-.34.29-1.4,1.52-1.78,1.74-6.13-.58-7.69,1.22-9.01,7.01-2,.62-3.44,2.03-4.87,3.43-1.64,1.61-3.26,3.19-5.68,3.53-2.94.33-4.9.87-6.27,3.32-3.09,2.58-5.28,5.92-7.55,9.38-1.6,2.46-3.26,4.98-5.3,7.34-1.24,1.09-2.7,1.47-4.09,1.82-1.11.29-2.16.56-3.01,1.17-2.35,2.5-5.46,3.74-8.54,4.97-1.71.68-3.42,1.36-4.98,2.26-2.72-.39-4.71,1.66-6.67,3.68-1.01,1.03-2.01,2.06-3.09,2.75-.68.7-.81,1.61-.93,2.51h0c-.05.31-.09.62-.15.91-.4.69-.82,1.37-1.2,2.07-2.11.49-4.04.03-5.95-.42-2.11-.5-4.2-.99-6.49-.21-3.45-3.22-4.62-3.41-6.22-3.68-1.14-.19-2.51-.41-5.09-1.81-.42-.62-.75-1.36-1.08-2.1-.64-1.45-1.3-2.92-2.67-3.58-.77,1.57-2.88,3.36-2.61,5.18l1.12,1.66v1.37c-.7.38-2.06,1.45-2.32,2.3,1.23,3.28,3.27,6.32,5.83,8.66.78,1.1,2.7.59,3.73,1.3.9.66,1.68,1.7,2.91,1.65,1.89-.15,3.6.99,5.35,1.49l1.17,3.02-2.93.3c-1.05-.16-2.27-.54-3.52-.92-1.58-.49-3.2-.99-4.57-1.07-.6-.26-1.23-.59-1.88-.93-2.58-1.35-5.47-2.87-7.97-.9l-1.7-.68c-.44.13-.93.32-1.44.52-1.21.47-2.55.99-3.59.85-2.06-.28-4.19.33-5.51,1.96-.76.22-1.53.43-2.29.66l-1.12-.6c.03-4.05-1.96-3.6-4.19-3.09-2.29.52-4.85,1.11-5.78-3.04-.42-.67-3.73-.53-5.8-.45h0c-.73.03-1.3.05-1.53.03-1.23-.36-2.45-.82-3.69-.91-.11,1.1-.29,2.14-.48,3.26-.31,1.8-.65,3.79-.8,6.52,0,2.11-4.11,1.2-4.11,0v-3.32l-3.82,1.52c-.1.54-3.92,5.8-5.59,3.32-1.67-1.43-1.15-2.5-.57-3.68.22-.46.46-.93.57-1.45l-.79-3.14c-1.3,1.06-2.59,2.83-3.83,4.54-3.09,4.26-6.49,8.95-12.74,6.16-2.68-1.39-4.56-2.03-6.09-2.55h0c-1.73-.59-3.03-1.02-4.54-2.24-.5-.46-.98-.93-1.47-1.41-1.48-1.45-2.95-2.9-4.84-3.78-1.89-1.12-3.67-3.31-5.99-3.36-2.67-.08-2.87,2.02-3.08,4.09-.1,1-.2,1.99-.57,2.72l-.85.56c-.97-.27-1.92-.71-2.92-1.11-2.12-.84-4.3-1.7-6.55-1.47-.46.05-.95.13-1.44.21-2.02.33-4.21.68-5.81-.77-.31-1.19-.57-3.84-.81-4.54-.65-1.04-1.79-2.29-3.05-2.66-2.12,3.94-6.55,3.29-8.97,0-.4,0-.8.02-1.2.04-1.84,1.48-1.09,2.97-.31,4.52.4.79.81,1.6.89,2.44-.85,1.8-1.46,3.7-2.29,5.5-3.83,3.71-8.88,3.17-13.95,2.62-3.26-.35-6.53-.7-9.49.07-1.8.86-3.52,2.03-5.52,2.47-2.28.04-4.96,1.08-6.66,2.65l-.31.39c-3.85,4.87-5.58,3.82-10.61,1.24-3.86-.09-7.71.13-11.57.34-5.26-.11-9.15-1.56-14.13,1.65-1.49.95-4.94,3.47-6.47,4.48-1.31.86-2.98,1-4.08,2.18-1.76,1.58-3.29,5.54-5.72,6.33-.65-.11-2.47-.48-3.15-.61-1.41-.68-3.37-1.88-4.89-2.28-2.39-1.78-4.79-5.11-8.15-4.34-3.87,2.89-6.12,3.74-11.19,3.34-2.92-1.7-5.11-4.48-8.08-6.12-5.33-2.2-10.23,1.21-14.85,3.51-2.01,1.48-4.21,2.07-6.69,1.41-2.96-4.5-2.48-11.2-7.76-14.04-2.17-1.08-6.01-1.59-8.32-3.77-8.38-7.21-24.43,6.29-34.88,4.93l1.46-3.11c-1.43-5.46-4.71-10.36-6.76-15.61-1.58-4.71-6.96-3.06-9.97-.62-2.43-.61-4.27-.92-6.12-2.37,1.59-2.42,5.1-2.8,7.4-3.93,3.06-1.38,4.82-4.4,7.72-5.9l.12-.82c3.96-3.22-2.82-4.88-5.65-4.6-1.41.07-2.51-.64-3.11-1.85-1.05-.17-4.79-.03-5.4-.8-3.85-6.92-5.25-11.63-13.57-14.08-3.11.33-4.92-.97-8.18-2.56-.31-.41-.59-.81-.84-1.18-1.53-3.06-3.71-5.23-6.12-7.53-.15-.25-.29-.49-.37-.77,1.01-2.71-2-4.12-3.34-5.93.11-1.55.32-3.75-.83-4.96l-5.12-1.85c-.88-1.38-1.83-2.73-2.85-4.01-5.51-2.66-6.09-.48-6.08-7.39l-1.39-1.27c-2.13-.04-4.3,0-6.08,1.27h-.01c-.69,2.49-1,7.49-3.99,7.38-.29-.23-.66-.48-.94-.71-1.17-1.51-2.8-2.41-4.12-2.67l-2.74-2.22c.34-2.68-1.42-3.79-3.17-5.47-.95-3.7,3.09-4.87,5.52-6.56-.03-2.18-1.23-4.87-.07-6.82,1.7-.69,2.82-1.43,3.77-2.88l-.43-3.35-1.49-1.42-7.49-.18c-.84.85-1.21,2-2.03,2.87-1.29-.06-1.92-1.59-3.3-1.48-2.19-.24-3.69-2.34-5.78-2.92-3.32-.21-7.37-1.45-10.36-1.04-.47.03-.96.09-1.46.17-4.2.96-8.82,1.9-12.86,3.6l-2.95-.43-1.01.58c-.45.84-.97,2.25-1.95,2.64-5.57,2.42-.71,6.68-5.8,13.63l.64.89.27,3.12c-2.25.53-3.52,2.85-4.29,4.86l-2.72-.24c-.21.19-.67.58-.89.76-.14,3.61-3.08,1.48-4.09,5.43-.12.29-.26.63-.38.97,1.07,2.04,4.08,6.1,2.13,7.94-.07,0-1.32.08-1.39.08l-1.91-1.57c-5.04.52-11.56,4.11-15.32-1.09-2.06-1.74-3.84-1.78-4.86-4.8-2.44-.07-5.16-.02-7.6.57-1.28-.78-2.98-1.11-3.94-2.32-1.2-.07-2.62.19-3.8.53-1.8-.44-2.42-1.36-3.38-2.66l-.04-.02c-2.15-1.08-4.16-2.1-6.01-3.76-1.65-.83-3.51.41-5.12.29-3.69-1.76-8.75-1.41-12.57-.15-.83-4.69-1.97-3.05-4.17-5.81-2.37-.53-4.33.52-6.38,1.38-1.62.33-5.11.94-6.85,1.02l-.39-1.97-1.39-.24-2.02,1.23c-7.82-2.97-7.98,8.6-16.57,1.53-1.63-1.26-4.32-.41-6.23-.79-.61-.64-.83-1.89-.74-2.66l-2.51-2.52s-4.55.19-4.57.19c-2.03,3.41-6.2,5.82-9.94,6.74-.15,1.2-1.16,3.2-2.29,3.73l-.11,2.17c-1.39,1.37-2.8,3.26-3.61,5.07-1.8.72-3.7,1.25-5.55,1.8-.11,2.94-2.98,4.17-5.05,5.59l-.95-.04c-.99-1.11-2.02-2.54-2.52-3.92-1.51-.55-2.75-1.3-4.32-1.6l-.54-1.97c-1.8-1.03-3.72-1.91-5.61-2.78-2.83-1.61-6.52.3-9.4-1.02l-.45-.88.49-1.34,1-.78s.17-1.09.17-1.1l-.58-1.25-2.04-.93c-14.48,7.98-12.83,1.26-24.27-4.21-.68-.22-1.33-.4-1.99-.61-.62-2.39-4.23-1.91-5.23-2.2-.62-.29-1.46-.88-2.18-.99.12-2.04,1.61-3.03,2.61-4.66,1.94-4.05,4.16-10,2.75-14.38,1.05-7.91,7.82-12.7,13.18-17.66l1.33-.21,1.75,1.63c5.29.72,9-6.61,10.56-10.77,4.47-4.54,5.81-11.08,8.11-16.85,4.01-4.55,4.67-11.31,6.51-16.91.69-8.98,1.79-18.41-.25-27.5-1.16-9.12-2.64-17.85-2.56-27.06-3.43-5.88-7.49-11.09-9.49-17.84-3.46-13.5-12.7-7.89-12.24-19.24-.7-2.26-1.03-4.58-.23-6.95-.45-.89-3.73-7.21-4.8-7.45-.34-.86-.86-2.6-.7-3.55,8.22-7.26-3.44-30.97-4.94-40.2-2.74-9.57-7.31-8.77-10.06-13.23l-1.26-1.23c-2.3-3.39-3.59-28.4-4.27-32.72-.37-3.95-2.18-7.82-2.97-11.68-.73-4.9-.78-9.87-3.67-14.09-3.61-17.54-4.7-21.76-13.29-34.83-1.01.51-2.74-.31-3.7-.69-6.07-10.94-18.95-5-26.65-12.69-5.11-1.78-13.15-6.39-18.47-4.29-1.96,1.76-4.3,3.38-7.01,1.96-4.32-1.46-3.21-2.26-5.64-5.57-1.64-2.23-3.87-3.78-5.57-5.81-3.8-6.71-2.2-15.83-5.29-22.91l-4.55-14.06c-2.76-3.2-2.95-6.04-6.88-7.87-2.03-.41-2.63.74-3.48.84-1.43.17-3.23-.06-4.69-.09-2.3.46-2.1,5.03-4.97,3.94-3.35-6.6-5.63-5.53-7.54-8.05-5.43-5.43-9.11-15.69-15.99-18.69-3.37.69-5.36-1.74-8.49-1.84-3.54.64-7.02.87-10.34-.68-4.53-.57-8.81.21-13.25,1.05-3.92.08-10.88-6.18-14.81-3.37-12.26,2.4-12.7-.36-19.43-10.05-5.14-4.82-7.02-2.91-12.64-2.32-3.83-3.49-9.3-3.34-12.67-7.34-2.49-1.08-4.77-2.95-7.4-1.75-5.54,2.14-3.72,5.1-6.71,7.15l-1.9-.13c-3.19-4.57-10.74-6.17-12.16-11.3-.75-8.8-1.38-18.51-3.98-27.03-.44-2.26-.88-4.48-2.45-6.27-5.25-8.35-18.26-4.54-23.5-12.3-3.97-.45-7.32-3.97-10.73-5.77-14.3-3.27-13.19.49-15.57-14.65,3.83-4.92,4.63-5.44,5.71-10.18.59-1.75.39-3.56,1.62-5.19,2.33-2.61,2.83-4.69,3.54-7.67l.02-.09,5.82-4.98c1.23-3.49-1.41-9.51,2.63-11.51,2.96,1.07,4.45.86,6.6.03,12.57-6.48,8.78.88,19.7-4.57,12.43-4.79,8.03,5.93,15.17,4.05.16-.08.36-.16.6-.29,2.29.53,4.91,3.44,6.31,4.64,1.4-.28,3.11-.87,4.5-.75h.06c2.7,1.14,5.14,2.42,8.27,2.27,3.15.2,6.07,1.14,8.2-1.32.57-.44,1.06-.84,1.24-1,5.02,4.26,7.9,1.63,11.06,4.78.46.6.82,1.16,1.19,1.93,4.12,1.46,10.87,3.55,14.81,4.24.63-.36,1.45-.78,2.24-1.18h0c2.1-1.05,2.89-3.07,4.41-4.78,2.68-3.77,5.99-2.74,10.1-6.1,6.51-.94,5.11,5.71,9.71,7.33,5.35.4,9.86,1.65,14.02,5.21,3.63,4.09,9.48,4.62,13.68,8.04h.04c5.5-.4,16.41-1.18,13.13,7.46,3.47,3.56,6.48,2.53,8.45,9.21,2.33,1.27,5.55,1.13,7.92.08,1.67-3.54,4.98-2.26,7.14.03,4.01,1.68,8.09,4.66,7.35,9.58,1.17,1.45,4.71,2.69,7,3.19,8.6,2.96,4.93-4.91,11.2-4.46h.02c8.6,2.62,18.11,5.02,25.46,10.42,3.21,1.23,7.6.26,9.89,3.5.85.98,1.6,2.11,2.39,3.13,8.39.37,6.87-4.32,11.81-7.68,4.92,2.73,4.52-3.54,10.77,2.34.07,1.33.15,12.29,1.09,13.17,4.85,2.48,10.48-.18,13.81,5.49.7.75,1.41,1.53,2.3,2.06,4.12,2.28,9.07,3.3,10.73,8.29,2.94,1.16,4.15,1.38,5.87,3.72,5.47-.63,6.96,6.02,11.36,5.22l2.7-3.59c2.64-.49,6.85,2.06,8.53,3.57,0,0,5.16-1.1,5.16-1.09,2.1-4.47,3.91-3.87,7-.03,4.08,5.37,6.57.16,9.73,6.36,1.81,2.03,3.93-.14,7.63-.14,7.27,1.31,5.9-5.87,7.77-9.34,1.26-1.4,4.64-2.48,5.63-1.18,1.73,1.56.95,5.43,3.3,5.99,3.11.77,7.52-.12,8.31,2.32,1.04,2.69,1.43,2.74,4.16,1.57,9.16-4.35,10.59-3.02,15.68,4.64,6.71.98,9.3-8.27,15.31-5.98,1.74.47,3.99-.5,5.67-.96,8.7-3.57,6.93,1.93,13.16-3.03,3.3-1.56,8.32-2.01,9,2.17,4.35,6.68,12.19-1.89,18.77-1.54,1.69-.86,2.36-2.76,3.14-4.2,1.22-4.63,10.29-.98,11.86-3.79,5.03-3.48,9.16.9,7.33,6.44-1.14,5.22,5.99,6.24,9.76,7.44,6.01.65,6.05,4.05,10.43,6.68,1.08.61,2.33.94,3.53.73,4.23-.58,6.7,1.98,10.36,2.67,4.82,2.2,6.45,2.94,9.38,5.85,3.07,3.52,6.87-2.77,5.06-6.07-1.53-3.6-1.48-5.53,2.16-3.99,4.75,1.78,8.63-3.54,11.21-3.54,3.24-.23,8.23-.47,9.69,3.51,1.35,3.29,5.61-.53,8.02-.71,7.91-1.49,6.22.84,8.45,5.79.65.59,1.64.46,3.16-.19,5.42-1.53,7.74,2.65,7.52,7.27,1.96,2.26,6.83.86,9.62,2.49,4.87,2.21,9.24,5.66,13.55,7.58.54,1.59-2.52,2.38-3.38,3.52-5.87,4.71,2.03,6.09,2.01,14.84,1.26,2.12,5.34,2.12,6.81,4.49,1.7,2.71,4.71,1.98,7.21,3.14,4.13,2.21,5.88,7.8,10.55,8.47"/>
  </g>
  <g id="mask">
    <path class="st2" d="M654.42,171.77c3.94.48,4.33,2.51,4.72,4.55.29,1.53.59,3.07,2.38,3.97,1.41.31,2.98.52,4.55.72,2.93.39,5.87.77,7.76,1.83,3.03,1.81,6.54,4.02,10.2,2.78,3.57-1.13,4.33,1.26,5.14,3.79.49,1.53,1.53,5.01,3.87,4.06,1.67-.68,5.55-3.7,7.75-3.37,3.05.97,6.2,1.24,9.22,1.49,3.37.28,6.58.55,9.27,1.78,2.1,3.47,7.4,5.25,11.52,4.98,3.06-.39,4.76-1.13,6.01-.06,2.61,3.34,7.12,6.25,9.47,9.45.58.99-.63,4.24-.31,4.95,2.03,1.63,5.67-.23,6.83,3.83,2.85,1.81,4.32.82,5.58-.04,1.17-.79,2.16-1.46,3.91.3,1.36,1.25.87,3.3,2.33,4.52,2.7,1.84,5.97,3.07,9.27,4.31,5.65,2.12,11.39,4.28,14.51,9.61.84,1.78,1.07,4.18,1.29,6.49.15,1.53.29,3.02.61,4.26-.06.03-2.54,2.7-2.65,3.61-.42,4.85-3.76,4.45-4.09,7.31.01,1.23-1.18,4.97-1.29,5.31-.87-.39-3.56-.33-4.53.82-3.05,1.69-6.6,2.97-1.41,5.53,1.99,1.31,6.43,2.38,4.97,5.61-.86,3.13,4.63,6.14,6.35,3.11.36-.85,1.11-1.4,1.97-1.63,2.7-.75,5.15,3.7,7.52.74.89-1.83,7.24,2.87,8.18,3.7,1.21,1.55,3.26.86,4.78,1.68,2.27,1.95,5.89,3.54,8.6,4.37,1.01.5,1.85,2.54,2.59,3.54h3.02l5.82-5.31c.45-3.51,2.39-7.7,6.5-7.79,2.06-.27,4.86-2.05,6.52-1.8,1.53,1.27,4.52-.61,6.3-1.68,5.24-4.82,12.67,2.96,17.5-.63,1.51-1.34-.48-4.28,1.62-5.21,2.24-.71,7.32-.32,8.05-1.15,1.56-1.79,3.01-5.72,3.74-8.61.26-1.67.57-3.23,2.16-4.15,3.53-3.11,7.06-5.75,11.12-8.08l2.16-4.21c5.17-.17,11.69,1.86,16.18,4.66l3.45-3.77c3.9,1.54,8.88,2.53,13.36,2.66,2.05.2,7.6,3.28,7.76,3.32-.87-1.46-1.13-4.79-1.95-6.6-.67-1.2-1.92-2.39-2.3-3.71-.67-1.7,2.69-3.52,2.1-5.41,0,0,5.38-.67,5.39-.67l3.45-2.43s5.38,5.76,5.39,5.76c4.12-1.61,6.04-1.3,8.68-.89,1.21.19,2.6.41,4.4.47,1.46-.2,2.91-.62,4.27-1.16,2.35-1.42,4.65-2.28,6.79.73,1.73,1.26,2.6-.04,3.76,2.53h.01c1.16,1.51,6.52,5.38,7.24,5.85-.04,1.54-2.08,4.07-1.3,5.76.45,1.1,1.47,1.99,2.14,2.94h.01c1.33,3.25,1.29,8.47,2.82,11.46.96.82,1.84,1.92,2.73,3.03,2.25,2.82,4.57,5.74,8.57,4.42h.01c.42-.16,1.08-.75,1.22-1.02-.01,0-1.75-2.75-1.75-2.76.98-1.57,1.32-2.63,1.75-6.32-.37-5.76,1.62-6.31,3.62-6.86,1.78-.49,3.56-.99,3.71-5.1,0-3.11-.86-9.31,1.29-11.52,2.16-2.22,1.73-4.87,5.61-4.87,7.49.4,12.78-1.08,18.04,5.14,1.79,2.11,4.13,4.88,6.55,5.49,1.53.35,2.22,2.67,3.25,3.82,1.24,1.51,3.7,1.12,5.15,0,2.22-1.71,5.26-4.23,8.28-3.25,1.95.64,4.35,1.42,8.57-.66,2.29-.74,3.59.29,4.02,2.46,3.76,7.99,11.97,11.78,16.45,19.12,1.79,1.56.82,4.57,1.75,6.36,1.22,1.41,4.22-.26,5.69.57,3.14,1.12,1.25,9.65,5.06,10.2,2.29-1.36,3.55,1.2,3.46,3.09,0,1.78,2.16,7.53,2.59,9.3.87,2.29,4.26,1.32,6.04.45,5.78-2.59,8.06-9.75,13.17-5.64.82.6,1.81.51,3.04.39,5.89-1.36,8.52,4.62,14.42.37,4.43-4.6,5.01,1.99,8.63-.67.54-.33,1.87-.9,2.36-1.18h.01c1.18-.81,2.87,1.71,4.07,2.6,3.5,2.26.28,7.79,4.62,7.76,9.89-1.94,2.54,6.05,15.33.39,1.69.41,1.84,5.03,2.78,6.35,2.22,3.45,6.78,1.71,9.63-.35,11.21-6.72,3.32,3.15,6.96,7.71,1.43,5.51-5.58,15.67-6.96,20.34v7.53c0,2.66.86,5.76,2.16,7.53,1.4,3.17.65,8.35-1.94,10.71h-.01c-2.88,2.24-7.75-2.88-10.13-.07-.41.87-.99,1.73-1.83,2.2-4.11,1.03-6.77-3.96-8.38,2.88-.95,2.81-2.76,3.99-4.23,5.99-1.53,3.14-1.71,8.89-2.38,11.97l6.45,3.99c2.9,1.76,10.72,3.79,13.52,6.33,1.82,1.52,2.7,3.72,5.17,4.36,3.2.2,3.6,2.57,3.26,5.15-.32,6.91,4.48-.2,7.93,8.82,1.77,1.99,3.47-2.74,5.35-2.06,4.56,2.28,8-2.09,13.84.64,3.67,1.06,11.31,3.27,9.16,8.2-2.8,3.59.09,4.93,2.57,7.03,1.96,1.83.05,4.26.5,6.11,1.13.97,4.73,2.96,6.32,1.18,2.17-2.6,3.34-6.1,7.86-4.57,3.21.91,4.61.61,5.18,3.54,1.87,7.01,6.31-.46,9.56-1.57,4.45-.97,1.49,6.2,2.64,8.15,2.91,10.06,9.66-3.01,13.8-.95.32,9.25,10.07-1.06,13.47-1.7,14.44,2.77,3.21,4.58,6.3,8.3,2.13,1.99,6.35,3.07,7.08,6.09-.24,4.64,4.88,8.92,9.26,7.28,2.06-1.47,3.04-4.42,6.02-2.6,2.25,1.57,4.67,1.26,7.74,1.37,1.87.09,2.35,1.19,3.48,2.61,1.44,1.96,4.08,3.73,5.17,5.76l-3.8,2.69s.19,4.57.94,6.88c-.71,5.8-5.11,11.22-11.37,14.37-3.45,1.78-8.62,8.42-8.62,8.42,0,0-3.89,6.64-9.06,6.19-8-1.26-3.59,7-12.82,2.37-3.03-1-2.37,2.25-3.58,4.72-1.29,2.67-1.29,5.76-.86,11.52-.42,7.08,6.33,12.46,2.92,19.1.71,4.17,4.26,6.55,8.31,9.26,4.97,2.28.91-6.74,6.04-6.19,0,0,3.02,2.66,3.44,5.31.43,2.66,3.89,3.1,4.75-.44.86-3.54,3.02-.45,5.18,1.77,3.7,2.3,2.77,11.02-1.57,10.04-.84,1.13-1.08,1.08-1.23,2.37l.59,1.15.43.15-.09,1.18c2.52,6.29,9.38,9.46,6.9,16.99,2.88,5.41,10.44,5.34,15.31,8.35.44.91.47,2.74.41,3.72l.56.4c11.08.58,4.65,2.81,11.78,7.79,6.04,4.03,12.15,5.38,18.78,8.31l.16.94,6.25,1.92.75,1.57.75.09.22-2.02.71-.47.83,1.57-.8,2.13.67.73.88.17c.77-.32,1.53-1.99,2.06-2.64l.03,1.29-1.02,1.65,1.77,1.08c.16-.4.61-1.88.92-2.1l1.68,2.24-1.38,2.49-2.09.02-.82,1.18c.39.24.75.52,1.11.8l1.46-.11,1.32,1.53,1.52-2.87-.36-1.61.34-.63,1.19.24c.83,1.12.23,3.68.11,4.93l-.66.34-.16.52.74.54,1.12-.97.78.8-.55,2.6.47.66.73-.54.85.62,1.16-.27.47-.69,1.12.36c.16.3.28.63.36.94-.79,1.08-.44,1.93.15,3.14-1.23,2.28,1.23,3.46,2.01,5.37l-.73,1.35.3.52c2.9.1,4.23,1.67,6.92,2.17l.67.67-.86,2.01-1.14.19-.89-1.44c-1.64,2.23-2.7,4.71-4.66,6.7l1.05,1.98c-.85,3.14-1.01,5.76-4.9,6.29-.53,2.19-.41,1.72-1.85,3.43-.02.1.16.87.2,1.01-3.54,1.57-2.54,5.47-.46,8.11-.58,1.58-.51,2.53-.55,4.29l-1.71,1.57c-.79,3.22-.18,6.65.07,9.94l-1.38,2.17-.03,2.3c-1.39,1.42-1.1.79-1.68,2.62-3.89,3.14-5.76-2.38-8.59-3.88-5.96-3.25-8.7,3.37-11.43,7.73-1.64,2.57-3.22,5.2-4.88,7.76-5.39,7.11-7.93-6.73-10.63-9.95-6.52-3.87-14.22-1.81-20.19.77l-.48-.66-3.74-1.05-.55-2.06-.72-.67-1.35.59-.56-1.75-1.64-.13c-.21-.89-.93-2.14-1.64-2.69l-1.78-.02.43-.86-.24-.6-1.86.63-1.32-3.05-.7.1-1.11.91-3.54-3.65-.32-2.38-.84.41-.44-1.69-1.07-.04-.23-.51.48-.99-.77-1.12.49-1.26-.6-.79-1.13-.04c-.16.09-.32.27-.38.46-3.74,1.14-7.9-2.71-11.83-2.58-8.72.87-8.32,1.08-14.05-5.66l-3.9,1.05-1.47,5.42-2.84,1.6c-5.67-2.77-9.99-.78-15.96-1.95-6.73,1.96-14.72,1.86-19.61-3.86h-.01c-2.26-1.95-4.73-3.55-7.44-4.81-6.94-4.08-11.72-.61-17.79-4.32-2.33-1.44-4.5-3.41-6.99-4.53-2.83-1.36-5.71-2.99-8.15-5.12-1.87-3.07-10.23-11.53-7.84-14.72l1.13-.21c.51-.68.93-1.39,1.31-2.09,3.41-7.43,6.94-2.76,9.73-5.87-.28-2.04-3.49-4.05-4.68-5.58h-1.28l-4.4,2.72c-7.24.05-7.15-8.03-18.94-3.43-2.29-.59-4.41-1.52-5.77-3.54-.2-2.63-1.07-4.16-1.69-6.48h-.01c-4.43-2.86-10.32-2.38-14.84-4.98-3.69-3.15-5.42-7.6-11.12-7.12-.77,1.15-1.73,2.23-2.63,3.27-4.29,5.22-6.6,3.66-11.04.59-5.45-2.08-8.45-10.68-14.96-8.66-.34.29-1.4,1.52-1.78,1.74-6.13-.58-7.69,1.22-9.01,7.01-2,.62-3.44,2.03-4.87,3.43-1.64,1.61-3.26,3.19-5.68,3.53-2.94.33-4.9.87-6.27,3.32-3.09,2.58-5.28,5.92-7.55,9.38-1.6,2.46-3.26,4.98-5.3,7.34-1.24,1.09-2.7,1.47-4.09,1.82-1.11.29-2.16.56-3.01,1.17-2.35,2.5-5.46,3.74-8.54,4.97-1.71.68-3.42,1.36-4.98,2.26-2.72-.39-4.71,1.66-6.67,3.68-1.01,1.03-2.01,2.06-3.09,2.75-.68.7-.81,1.61-.93,2.51h0c-.05.31-.09.62-.15.91-.4.69-.82,1.37-1.2,2.07-2.11.49-4.04.03-5.95-.42-2.11-.5-4.2-.99-6.49-.21-3.45-3.22-4.62-3.41-6.22-3.68-1.14-.19-2.51-.41-5.09-1.81-.42-.62-.75-1.36-1.08-2.1-.64-1.45-1.3-2.92-2.67-3.58-.77,1.57-2.88,3.36-2.61,5.18l1.12,1.66v1.37c-.7.38-2.06,1.45-2.32,2.3,1.23,3.28,3.27,6.32,5.83,8.66.78,1.1,2.7.59,3.73,1.3.9.66,1.68,1.7,2.91,1.65,1.89-.15,3.6.99,5.35,1.49l1.17,3.02-2.93.3c-1.05-.16-2.27-.54-3.52-.92-1.58-.49-3.2-.99-4.57-1.07-.6-.26-1.23-.59-1.88-.93-2.58-1.35-5.47-2.87-7.97-.9l-1.7-.68c-.44.13-.93.32-1.44.52-1.21.47-2.55.99-3.59.85-2.06-.28-4.19.33-5.51,1.96-.76.22-1.53.43-2.29.66l-1.12-.6c.03-4.05-1.96-3.6-4.19-3.09-2.29.52-4.85,1.11-5.78-3.04-.42-.67-3.73-.53-5.8-.45h0c-.73.03-1.3.05-1.53.03-1.23-.36-2.45-.82-3.69-.91-.11,1.1-.29,2.14-.48,3.26-.31,1.8-.65,3.79-.8,6.52,0,2.11-4.11,1.2-4.11,0v-3.32l-3.82,1.52c-.1.54-3.92,5.8-5.59,3.32-1.67-1.43-1.15-2.5-.57-3.68.22-.46.46-.93.57-1.45l-.79-3.14c-1.3,1.06-2.59,2.83-3.83,4.54-3.09,4.26-6.49,8.95-12.74,6.16-2.68-1.39-4.56-2.03-6.09-2.55h0c-1.73-.59-3.03-1.02-4.54-2.24-.5-.46-.98-.93-1.47-1.41-1.48-1.45-2.95-2.9-4.84-3.78-1.89-1.12-3.67-3.31-5.99-3.36-2.67-.08-2.87,2.02-3.08,4.09-.1,1-.2,1.99-.57,2.72l-.85.56c-.97-.27-1.92-.71-2.92-1.11-2.12-.84-4.3-1.7-6.55-1.47-.46.05-.95.13-1.44.21-2.02.33-4.21.68-5.81-.77-.31-1.19-.57-3.84-.81-4.54-.65-1.04-1.79-2.29-3.05-2.66-2.12,3.94-6.55,3.29-8.97,0-.4,0-.8.02-1.2.04-1.84,1.48-1.09,2.97-.31,4.52.4.79.81,1.6.89,2.44-.85,1.8-1.46,3.7-2.29,5.5-3.83,3.71-8.88,3.17-13.95,2.62-3.26-.35-6.53-.7-9.49.07-1.8.86-3.52,2.03-5.52,2.47-2.28.04-4.96,1.08-6.66,2.65l-.31.39c-3.85,4.87-5.58,3.82-10.61,1.24-3.86-.09-7.71.13-11.57.34-5.26-.11-9.15-1.56-14.13,1.65-1.49.95-4.94,3.47-6.47,4.48-1.31.86-2.98,1-4.08,2.18-1.76,1.58-3.29,5.54-5.72,6.33-.65-.11-2.47-.48-3.15-.61-1.41-.68-3.37-1.88-4.89-2.28-2.39-1.78-4.79-5.11-8.15-4.34-3.87,2.89-6.12,3.74-11.19,3.34-2.92-1.7-5.11-4.48-8.08-6.12-5.33-2.2-10.23,1.21-14.85,3.51-2.01,1.48-4.21,2.07-6.69,1.41-2.96-4.5-2.48-11.2-7.76-14.04-2.17-1.08-6.01-1.59-8.32-3.77-8.38-7.21-24.43,6.29-34.88,4.93l1.46-3.11c-1.43-5.46-4.71-10.36-6.76-15.61-1.58-4.71-6.96-3.06-9.97-.62-2.43-.61-4.27-.92-6.12-2.37,1.59-2.42,5.1-2.8,7.4-3.93,3.06-1.38,4.82-4.4,7.72-5.9l.12-.82c3.96-3.22-2.82-4.88-5.65-4.6-1.41.07-2.51-.64-3.11-1.85-1.05-.17-4.79-.03-5.4-.8-3.85-6.92-5.25-11.63-13.57-14.08-3.11.33-4.92-.97-8.18-2.56-.31-.41-.59-.81-.84-1.18-1.53-3.06-3.71-5.23-6.12-7.53-.15-.25-.29-.49-.37-.77,1.01-2.71-2-4.12-3.34-5.93.11-1.55.32-3.75-.83-4.96l-5.12-1.85c-.88-1.38-1.83-2.73-2.85-4.01-5.51-2.66-6.09-.48-6.08-7.39l-1.39-1.27c-2.13-.04-4.3,0-6.08,1.27h-.01c-.69,2.49-1,7.49-3.99,7.38-.29-.23-.66-.48-.94-.71-1.17-1.51-2.8-2.41-4.12-2.67l-2.74-2.22c.34-2.68-1.42-3.79-3.17-5.47-.95-3.7,3.09-4.87,5.52-6.56-.03-2.18-1.23-4.87-.07-6.82,1.7-.69,2.82-1.43,3.77-2.88l-.43-3.35-1.49-1.42-7.49-.18c-.84.85-1.21,2-2.03,2.87-1.29-.06-1.92-1.59-3.3-1.48-2.19-.24-3.69-2.34-5.78-2.92-3.32-.21-7.37-1.45-10.36-1.04-.47.03-.96.09-1.46.17-4.2.96-8.82,1.9-12.86,3.6l-2.95-.43-1.01.58c-.45.84-.97,2.25-1.95,2.64-5.57,2.42-.71,6.68-5.8,13.63l.64.89.27,3.12c-2.25.53-3.52,2.85-4.29,4.86l-2.72-.24c-.21.19-.67.58-.89.76-.14,3.61-3.08,1.48-4.09,5.43-.12.29-.26.63-.38.97,1.07,2.04,4.08,6.1,2.13,7.94-.07,0-1.32.08-1.39.08l-1.91-1.57c-5.04.52-11.56,4.11-15.32-1.09-2.06-1.74-3.84-1.78-4.86-4.8-2.44-.07-5.16-.02-7.6.57-1.28-.78-2.98-1.11-3.94-2.32-1.2-.07-2.62.19-3.8.53-1.8-.44-2.42-1.36-3.38-2.66l-.04-.02c-2.15-1.08-4.16-2.1-6.01-3.76-1.65-.83-3.51.41-5.12.29-3.69-1.76-8.75-1.41-12.57-.15-.83-4.69-1.97-3.05-4.17-5.81-2.37-.53-4.33.52-6.38,1.38-1.62.33-5.11.94-6.85,1.02l-.39-1.97-1.39-.24-2.02,1.23c-7.82-2.97-7.98,8.6-16.57,1.53-1.63-1.26-4.32-.41-6.23-.79-.61-.64-.83-1.89-.74-2.66l-2.51-2.52s-4.55.19-4.57.19c-2.03,3.41-6.2,5.82-9.94,6.74-.15,1.2-1.16,3.2-2.29,3.73l-.11,2.17c-1.39,1.37-2.8,3.26-3.61,5.07-1.8.72-3.7,1.25-5.55,1.8-.11,2.94-2.98,4.17-5.05,5.59l-.95-.04c-.99-1.11-2.02-2.54-2.52-3.92-1.51-.55-2.75-1.3-4.32-1.6l-.54-1.97c-1.8-1.03-3.72-1.91-5.61-2.78-2.83-1.61-6.52.3-9.4-1.02l-.45-.88.49-1.34,1-.78s.17-1.09.17-1.1l-.58-1.25-2.04-.93c-14.48,7.98-12.83,1.26-24.27-4.21-.68-.22-1.33-.4-1.99-.61-.62-2.39-4.23-1.91-5.23-2.2-.62-.29-1.46-.88-2.18-.99.12-2.04,1.61-3.03,2.61-4.66,1.94-4.05,4.16-10,2.75-14.38,1.05-7.91,7.82-12.7,13.18-17.66l1.33-.21,1.75,1.63c5.29.72,9-6.61,10.56-10.77,4.47-4.54,5.81-11.08,8.11-16.85,4.01-4.55,4.67-11.31,6.51-16.91.69-8.98,1.79-18.41-.25-27.5-1.16-9.12-2.64-17.85-2.56-27.06-3.43-5.88-7.49-11.09-9.49-17.84-3.46-13.5-12.7-7.89-12.24-19.24-.7-2.26-1.03-4.58-.23-6.95-.45-.89-3.73-7.21-4.8-7.45-.34-.86-.86-2.6-.7-3.55,8.22-7.26-3.44-30.97-4.94-40.2-2.74-9.57-7.31-8.77-10.06-13.23l-1.26-1.23c-2.3-3.39-3.59-28.4-4.27-32.72-.37-3.95-2.18-7.82-2.97-11.68-.73-4.9-.78-9.87-3.67-14.09-3.61-17.54-4.7-21.76-13.29-34.83-1.01.51-2.74-.31-3.7-.69-6.07-10.94-18.95-5-26.65-12.69-5.11-1.78-13.15-6.39-18.47-4.29-1.96,1.76-4.3,3.38-7.01,1.96-4.32-1.46-3.21-2.26-5.64-5.57-1.64-2.23-3.87-3.78-5.57-5.81-3.8-6.71-2.2-15.83-5.29-22.91l-4.55-14.06c-2.76-3.2-2.95-6.04-6.88-7.87-2.03-.41-2.63.74-3.48.84-1.43.17-3.23-.06-4.69-.09-2.3.46-2.1,5.03-4.97,3.94-3.35-6.6-5.63-5.53-7.54-8.05-5.43-5.43-9.11-15.69-15.99-18.69-3.37.69-5.36-1.74-8.49-1.84-3.54.64-7.02.87-10.34-.68-4.53-.57-8.81.21-13.25,1.05-3.92.08-10.88-6.18-14.81-3.37-12.26,2.4-12.7-.36-19.43-10.05-5.14-4.82-7.02-2.91-12.64-2.32-3.83-3.49-9.3-3.34-12.67-7.34-2.49-1.08-4.77-2.95-7.4-1.75-5.54,2.14-3.72,5.1-6.71,7.15l-1.9-.13c-3.19-4.57-10.74-6.17-12.16-11.3-.75-8.8-1.38-18.51-3.98-27.03-.44-2.26-.88-4.48-2.45-6.27-5.25-8.35-18.26-4.54-23.5-12.3-3.97-.45-7.32-3.97-10.73-5.77-14.3-3.27-13.19.49-15.57-14.65,3.83-4.92,4.63-5.44,5.71-10.18.59-1.75.39-3.56,1.62-5.19,2.33-2.61,2.83-4.69,3.54-7.67l.02-.09,5.82-4.98c1.23-3.49-1.41-9.51,2.63-11.51,2.96,1.07,4.45.86,6.6.03,12.57-6.48,8.78.88,19.7-4.57,12.43-4.79,8.03,5.93,15.17,4.05.16-.08.36-.16.6-.29,2.29.53,4.91,3.44,6.31,4.64,1.4-.28,3.11-.87,4.5-.75h.06c2.7,1.14,5.14,2.42,8.27,2.27,3.15.2,6.07,1.14,8.2-1.32.57-.44,1.06-.84,1.24-1,5.02,4.26,7.9,1.63,11.06,4.78.46.6.82,1.16,1.19,1.93,4.12,1.46,10.87,3.55,14.81,4.24.63-.36,1.45-.78,2.24-1.18h0c2.1-1.05,2.89-3.07,4.41-4.78,2.68-3.77,5.99-2.74,10.1-6.1,6.51-.94,5.11,5.71,9.71,7.33,5.35.4,9.86,1.65,14.02,5.21,3.63,4.09,9.48,4.62,13.68,8.04h.04c5.5-.4,16.41-1.18,13.13,7.46,3.47,3.56,6.48,2.53,8.45,9.21,2.33,1.27,5.55,1.13,7.92.08,1.67-3.54,4.98-2.26,7.14.03,4.01,1.68,8.09,4.66,7.35,9.58,1.17,1.45,4.71,2.69,7,3.19,8.6,2.96,4.93-4.91,11.2-4.46h.02c8.6,2.62,18.11,5.02,25.46,10.42,3.21,1.23,7.6.26,9.89,3.5.85.98,1.6,2.11,2.39,3.13,8.39.37,6.87-4.32,11.81-7.68,4.92,2.73,4.52-3.54,10.77,2.34.07,1.33.15,12.29,1.09,13.17,4.85,2.48,10.48-.18,13.81,5.49.7.75,1.41,1.53,2.3,2.06,4.12,2.28,9.07,3.3,10.73,8.29,2.94,1.16,4.15,1.38,5.87,3.72,5.47-.63,6.96,6.02,11.36,5.22l2.7-3.59c2.64-.49,6.85,2.06,8.53,3.57,0,0,5.16-1.1,5.16-1.09,2.1-4.47,3.91-3.87,7-.03,4.08,5.37,6.57.16,9.73,6.36,1.81,2.03,3.93-.14,7.63-.14,7.27,1.31,5.9-5.87,7.77-9.34,1.26-1.4,4.64-2.48,5.63-1.18,1.73,1.56.95,5.43,3.3,5.99,3.11.77,7.52-.12,8.31,2.32,1.04,2.69,1.43,2.74,4.16,1.57,9.16-4.35,10.59-3.02,15.68,4.64,6.71.98,9.3-8.27,15.31-5.98,1.74.47,3.99-.5,5.67-.96,8.7-3.57,6.93,1.93,13.16-3.03,3.3-1.56,8.32-2.01,9,2.17,4.35,6.68,12.19-1.89,18.77-1.54,1.69-.86,2.36-2.76,3.14-4.2,1.22-4.63,10.29-.98,11.86-3.79,5.03-3.48,9.16.9,7.33,6.44-1.14,5.22,5.99,6.24,9.76,7.44,6.01.65,6.05,4.05,10.43,6.68,1.08.61,2.33.94,3.53.73,4.23-.58,6.7,1.98,10.36,2.67,4.82,2.2,6.45,2.94,9.38,5.85,3.07,3.52,6.87-2.77,5.06-6.07-1.53-3.6-1.48-5.53,2.16-3.99,4.75,1.78,8.63-3.54,11.21-3.54,3.24-.23,8.23-.47,9.69,3.51,1.35,3.29,5.61-.53,8.02-.71,7.91-1.49,6.22.84,8.45,5.79.65.59,1.64.46,3.16-.19,5.42-1.53,7.74,2.65,7.52,7.27,1.96,2.26,6.83.86,9.62,2.49,4.87,2.21,9.24,5.66,13.55,7.58.54,1.59-2.52,2.38-3.38,3.52-5.87,4.71,2.03,6.09,2.01,14.84,1.26,2.12,5.34,2.12,6.81,4.49,1.7,2.71,4.71,1.98,7.21,3.14,4.13,2.21,5.88,7.8,10.55,8.47"/>
  </g>
</svg>