<?xml version="1.0" encoding="UTF-8"?><svg id="Layer_1" xmlns="http://www.w3.org/2000/svg" viewBox="0 0 200 200"><defs><style>.cls-1,.cls-2{fill:#fff;}.cls-2{fill-rule:evenodd;}</style></defs><path class="cls-1" d="M96.92,154.03v19.54l-16.84-8.67v-19.54l16.84,8.67Z"/><path class="cls-1" d="M119.37,164.91l-16.84,8.67v-19.54l16.84-8.67v19.54Z"/><path class="cls-1" d="M115.9,140.69l-16.18,8.33-16.18-8.33,16.18-8.33,16.18,8.33Z"/><path class="cls-1" d="M74.46,116.47v19.54l-16.84-8.67v-19.54l16.84,8.67Z"/><path class="cls-1" d="M96.92,127.35l-16.84,8.67v-19.54l16.84-8.67v19.54Z"/><path class="cls-1" d="M119.37,116.47v19.54l-16.84-8.67v-19.54l16.84,8.67Z"/><path class="cls-1" d="M141.83,127.35l-16.84,8.67v-19.54l16.84-8.67v19.54Z"/><path class="cls-1" d="M93.45,103.13l-16.18,8.33-16.18-8.33,16.18-8.33,16.18,8.33Z"/><path class="cls-1" d="M138.36,103.13l-16.18,8.33-16.18-8.33,16.18-8.33,16.18,8.33Z"/><path class="cls-1" d="M52,78.91v19.54l-16.84-8.67v-19.54l16.84,8.67Z"/><path class="cls-1" d="M74.46,89.78l-16.84,8.67v-19.54l16.84-8.67v19.54Z"/><path class="cls-1" d="M96.92,78.91v19.54l-16.84-8.67v-19.54l16.84,8.67Z"/><path class="cls-1" d="M119.37,89.78l-16.84,8.67v-19.54l16.84-8.67v19.54Z"/><path class="cls-1" d="M141.83,78.91v19.54l-16.84-8.67v-19.54l16.84,8.67Z"/><path class="cls-1" d="M164.28,89.78l-16.84,8.67v-19.54l16.84-8.67v19.54Z"/><path class="cls-1" d="M70.99,65.56l-16.18,8.33-16.18-8.33,16.18-8.33,16.18,8.33Z"/><path class="cls-1" d="M115.9,65.56l-16.18,8.33-16.18-8.33,16.18-8.33,16.18,8.33Z"/><path class="cls-1" d="M160.81,65.56l-16.18,8.33-16.18-8.33,16.18-8.33,16.18,8.33Z"/><path class="cls-2" d="M100,0c55.23,0,100,44.77,100,100s-44.77,100-100,100S0,155.23,0,100,44.77,0,100,0ZM99.68,50.75l-42.06-21.29-5.61,2.9,41.44,21.65-16.18,8.33-22.46-11.56-25.26,13v29.58l22.46,11.56v26.01l22.46,11.56v26l25.26,13,25.26-13v-26l22.46-11.56v-26.01l22.46-11.56v-29.58l-25.26-13-22.46,11.56-16.34-8.41,38.8-21.57-5.62-2.9-39.34,21.29ZM77.27,22.22v5.78h42.11v-5.78h-42.11Z"/></svg>