<svg width="766" height="250" viewBox="0 0 766 250" fill="none" xmlns="http://www.w3.org/2000/svg">
<g clip-path="url(#clip0_599_8039)">
<rect width="766" height="250" fill="#E9EAEB"/>
<circle cx="260" cy="-10" r="260" fill="#8E9194"/>
<rect x="383" width="383" height="250" fill="#E9EAEB"/>
<path d="M541.78 104L575.98 37.8999H581.48L593.38 104H585.78L582.68 86.2999H558.68L549.78 104H541.78ZM561.98 80.1999H581.58L578.28 59.0999C578.147 58.0332 577.914 56.4666 577.58 54.3999C577.247 52.3332 577.014 50.7332 576.88 49.5999H576.68C575.214 53.1999 573.68 56.5666 572.08 59.6999L561.98 80.1999Z" fill="#3C3F42"/>
<path d="M528.905 104V38.1001H536.305V104H528.905Z" fill="#3C3F42"/>
<path d="M469.159 104V38.1001H484.959C496.359 38.1001 505.026 41.1001 510.959 47.1001C516.892 53.0334 519.859 60.9001 519.859 70.7001C519.859 80.6334 516.859 88.6668 510.859 94.8001C504.859 100.933 496.126 104 484.659 104H469.159ZM476.559 97.7001H484.559C494.159 97.7001 501.126 95.2001 505.459 90.2001C509.859 85.1334 512.059 78.5334 512.059 70.4001C512.059 62.4668 509.726 56.1668 505.059 51.5001C500.459 46.7668 493.559 44.4001 484.359 44.4001H476.559V97.7001Z" fill="#3C3F42"/>
<path d="M427.382 104V38.1001H459.182L456.782 44.4001H434.782V67.2001H456.482V73.5001H434.782V97.7001H459.782V104H427.382Z" fill="#3C3F42"/>
<path d="M346.88 104L360.78 38.1001H367.78L378.28 67.5001C381.214 75.9668 382.714 80.3001 382.78 80.5001H382.98C385.78 76.2334 388.214 72.7668 390.28 70.1001L414.08 38.1001H421.78L407.88 104H400.68L407.98 69.1001C409.18 63.3001 410.614 57.2001 412.28 50.8001H412.08C408.747 55.5334 405.914 59.4001 403.58 62.4001L383.38 89.3001H379.18L369.58 62.9001C367.98 58.5668 366.614 54.5334 365.48 50.8001H365.28C363.214 60.8001 362.014 66.5001 361.68 67.9001L354.08 104H346.88Z" fill="#3C3F42"/>
<path d="M599 104L657 90L634 50L599 104Z" fill="#3C3F42"/>
<path d="M328.978 95.0459V-0.39209H340.152V92.2339C340.152 94.0592 340.99 94.9719 342.668 94.9719C343.457 94.9719 346.5 95 349 94L347 104C344.5 104.5 342.199 104.592 339.338 104.592C332.431 104.592 328.978 101.41 328.978 95.0459Z" fill="white"/>
<path d="M314.644 104L313.09 101.04C310.278 103.507 307.022 104.74 303.322 104.74C299.869 104.74 297.008 103.679 294.738 101.558C292.518 99.3872 291.408 96.6245 291.408 93.2699C291.408 88.9779 293.357 85.7959 297.254 83.7239C299.672 82.4412 302.755 81.7259 306.504 81.5779L312.054 81.3559V80.9859C312.054 77.9272 310.007 76.3979 305.912 76.3979C302.706 76.3979 299.746 77.1132 297.032 78.5439L293.554 71.5139C298.093 69.2445 302.903 68.1099 307.984 68.1099C318.147 68.1099 323.228 72.5499 323.228 81.4299V97.1179C323.228 100.423 323.426 102.717 323.82 104H314.644ZM312.054 88.3859L308.28 88.5339C306.455 88.6325 305.074 88.9532 304.136 89.4959C303.1 90.1865 302.582 91.1979 302.582 92.5299C302.582 94.9472 304.038 96.1559 306.948 96.1559C309.02 96.1559 310.722 95.7365 312.054 94.8979V88.3859Z" fill="white"/>
<path d="M277 104.002V69H288.174V104.002H277Z" fill="white"/>
<path d="M282.5 63C284.611 63 286.389 62.2775 287.833 60.8324C289.278 59.3295 290 57.5376 290 55.4566C290 53.3179 289.278 51.5549 287.833 50.1676C286.389 48.7225 284.611 48 282.5 48C280.389 48 278.611 48.7225 277.167 50.1676C275.722 51.6127 275 53.3757 275 55.4566C275 57.5954 275.722 59.3873 277.167 60.8324C278.611 62.2775 280.389 63 282.5 63Z" fill="#3C3F42"/>
<path d="M260.885 104.74C255.113 104.74 250.575 103.063 247.269 99.7079C244.013 96.3532 242.385 92.0119 242.385 86.6839C242.385 81.2079 244.26 76.7432 248.009 73.2899C251.808 69.8365 256.347 68.1099 261.625 68.1099C265.72 68.1099 269.05 68.9732 271.615 70.6999V79.9499C269.001 77.9272 266.115 76.9159 262.957 76.9159C260.096 76.9159 257.851 77.8285 256.223 79.6539C254.595 81.4792 253.781 83.7979 253.781 86.6099C253.781 89.5699 254.571 91.8639 256.149 93.4919C257.728 95.1199 259.849 95.9339 262.513 95.9339C264.98 95.9339 267.644 95.1445 270.505 93.5659L273.613 101.114C270.259 103.531 266.016 104.74 260.885 104.74Z" fill="white"/>
<path d="M234.869 99.5599C231.465 103.013 227.05 104.74 221.623 104.74C216.196 104.74 211.756 103.013 208.303 99.5599C204.899 96.1065 203.197 91.7159 203.197 86.3879C203.197 81.0599 204.899 76.6939 208.303 73.2899C211.756 69.8365 216.196 68.1099 221.623 68.1099C227.05 68.1099 231.465 69.8365 234.869 73.2899C238.322 76.6939 240.049 81.0599 240.049 86.3879C240.049 91.7159 238.322 96.1065 234.869 99.5599ZM216.295 93.3439C217.479 95.0705 219.255 95.9339 221.623 95.9339C223.991 95.9339 225.742 95.0705 226.877 93.3439C228.061 91.5679 228.653 89.2492 228.653 86.3879C228.653 83.5265 228.061 81.2325 226.877 79.5059C225.742 77.7792 223.991 76.9159 221.623 76.9159C219.255 76.9159 217.479 77.7792 216.295 79.5059C215.16 81.2325 214.593 83.5265 214.593 86.3879C214.593 89.2492 215.16 91.5679 216.295 93.3439Z" fill="white"/>
<path d="M171.285 101.04L174.689 93.0479C177.846 95.1199 181.201 96.1559 184.753 96.1559C188.256 96.1559 190.007 95.3665 190.007 93.7879C190.007 92.9492 189.44 92.2339 188.305 91.6419C187.17 91.0499 185.789 90.5072 184.161 90.0139C182.582 89.4712 180.979 88.8545 179.351 88.1639C177.723 87.4239 176.342 86.3139 175.207 84.8339C174.072 83.3045 173.505 81.4545 173.505 79.2839C173.505 75.9292 174.788 73.2405 177.353 71.2179C179.968 69.1459 183.446 68.1099 187.787 68.1099C191.882 68.1099 195.631 68.7019 199.035 69.8859V79.1359C194.99 77.5079 191.388 76.6939 188.231 76.6939C185.666 76.6939 184.383 77.3845 184.383 78.7659C184.383 79.3579 184.778 79.9005 185.567 80.3939C186.406 80.8872 187.442 81.3065 188.675 81.6519C189.908 81.9479 191.216 82.3919 192.597 82.9839C194.028 83.5759 195.36 84.2665 196.593 85.0559C197.826 85.7959 198.838 86.9059 199.627 88.3859C200.466 89.8165 200.885 91.5185 200.885 93.4919C200.885 97.3399 199.43 100.177 196.519 102.002C193.658 103.827 190.081 104.74 185.789 104.74C180.066 104.74 175.232 103.507 171.285 101.04Z" fill="white"/>
</g>
<defs>
<clipPath id="clip0_599_8039">
<rect width="766" height="250" fill="white"/>
</clipPath>
</defs>
</svg>
