<svg width="188" height="70" viewBox="0 0 188 70" fill="none" xmlns="http://www.w3.org/2000/svg">
<path d="M21.247 53.1852C14.935 53.1852 9.81584 51.5802 5.88951 48.3704C1.96317 45.1605 0 40.7654 0 35.1852C0 29.7037 1.86377 25.2346 5.5913 21.7778C9.31884 18.2716 14.1646 16.5185 20.1287 16.5185C21.7191 16.5185 23.0362 16.5926 24.0799 16.7407V0H35.337V50.4444C31.6095 52.2716 26.9128 53.1852 21.247 53.1852ZM20.7996 44.0741C22.1913 44.0741 23.2847 43.9506 24.0799 43.7037V25.8519C23.0362 25.7037 21.9179 25.6296 20.7251 25.6296C17.8922 25.6296 15.6308 26.4691 13.941 28.1481C12.3009 29.7778 11.4808 32.0741 11.4808 35.037C11.4808 37.9012 12.3506 40.1235 14.0901 41.7037C15.8793 43.2839 18.1158 44.0741 20.7996 44.0741Z" fill="#3C3F42"/>
<path d="M71.7457 38.2963H49.3805C49.4799 40.3704 50.3248 41.9506 51.9152 43.037C53.5554 44.0741 55.6179 44.5926 58.103 44.5926C61.3832 44.5926 64.4149 43.8025 67.1981 42.2222L70.4784 49.7778C66.7011 52.0494 62.2778 53.1852 57.2083 53.1852C50.6976 53.1852 45.8766 51.4815 42.7455 48.0741C39.6641 44.6173 38.1234 40.3704 38.1234 35.3333C38.1234 29.8519 39.5895 25.358 42.5219 21.8519C45.4542 18.2963 49.6042 16.5185 54.9718 16.5185C60.2401 16.5185 64.3404 18.2222 67.2727 21.6296C70.2547 25.037 71.7457 29.7284 71.7457 35.7037V38.2963ZM49.2314 30.8889H60.4886C60.4389 29.1605 59.9419 27.7284 58.9976 26.5926C58.0533 25.4074 56.6368 24.8148 54.7482 24.8148C53.0087 24.8148 51.6419 25.4074 50.6479 26.5926C49.7036 27.7778 49.2314 29.2099 49.2314 30.8889Z" fill="#3C3F42"/>
<path d="M71.5722 49.4815L75.0015 41.4815C78.1823 43.5556 81.562 44.5926 85.1404 44.5926C88.6691 44.5926 90.4335 43.8025 90.4335 42.2222C90.4335 41.3827 89.862 40.6667 88.7188 40.0741C87.5757 39.4815 86.1841 38.9383 84.544 38.4444C82.9536 37.9012 81.3383 37.284 79.6982 36.5926C78.0581 35.8518 76.6665 34.7407 75.5234 33.2593C74.3802 31.7284 73.8087 29.8765 73.8087 27.7037C73.8087 24.3457 75.1009 21.6543 77.6853 19.6296C80.3195 17.5556 83.8233 16.5185 88.197 16.5185C92.3221 16.5185 96.0994 17.1111 99.5287 18.2963V27.5556C95.4532 25.9259 91.8251 25.1111 88.6443 25.1111C86.0599 25.1111 84.7677 25.8025 84.7677 27.1852C84.7677 27.7778 85.1653 28.321 85.9605 28.8148C86.8054 29.3086 87.8491 29.7284 89.0916 30.0741C90.3341 30.3704 91.6512 30.8148 93.0428 31.4074C94.4841 32 95.826 32.6914 97.0685 33.4815C98.311 34.2222 99.3299 35.3333 100.125 36.8148C100.97 38.2469 101.392 39.9506 101.392 41.9259C101.392 45.7778 99.9263 48.6173 96.994 50.4444C94.1113 52.2716 90.5081 53.1852 86.1841 53.1852C80.4189 53.1852 75.5482 51.9506 71.5722 49.4815Z" fill="#3C3F42"/>
<path d="M103.498 52.4444V17.4074H114.755V52.4444H103.498ZM113.935 11.4074C112.643 12.642 111.052 13.2593 109.164 13.2593C107.275 13.2593 105.685 12.642 104.393 11.4074C103.1 10.1728 102.454 8.64197 102.454 6.81481C102.454 5.03703 103.1 3.53086 104.393 2.29629C105.685 1.06173 107.275 0.444443 109.164 0.444443C111.052 0.444443 112.643 1.06173 113.935 2.29629C115.227 3.48148 115.873 4.98765 115.873 6.81481C115.873 8.59259 115.227 10.1235 113.935 11.4074Z" fill="#3C3F42"/>
<path d="M132.429 70C127.061 70 122.861 69.0123 119.83 67.037C116.848 65.1111 115.357 62.6173 115.357 59.5556C115.357 57.6296 115.953 55.9506 117.146 54.5185C118.388 53.0864 119.879 52.0741 121.619 51.4815C120.078 50.642 119.308 49.2099 119.308 47.1852C119.308 44.6173 120.873 42.4691 124.005 40.7407C122.017 39.7037 120.476 38.1975 119.382 36.2222C118.339 34.2469 117.817 32.0741 117.817 29.7037C117.817 26.1975 119.109 23.1358 121.694 20.5185C124.278 17.8519 128.08 16.5185 133.1 16.5185C136.181 16.5185 138.641 17.0617 140.48 18.1481C140.779 18.2963 141.077 18.2222 141.375 17.9259C143.611 15.8518 146.743 14.8148 150.768 14.8148C151.663 14.8148 152.508 14.8642 153.303 14.963L151.216 22.6667C150.122 22.4198 149.128 22.2963 148.234 22.2963C147.389 22.2963 146.693 22.3951 146.146 22.5926C147.836 24.8148 148.681 27.4074 148.681 30.3704C148.681 34.3704 147.264 37.5802 144.432 40C141.599 42.3704 137.896 43.5556 133.323 43.5556C131.683 43.5556 130.341 43.4074 129.298 43.1111C129.099 43.6543 129 44.1728 129 44.6667C129 45.7531 129.795 46.5432 131.385 47.037C132.976 47.5309 134.889 47.9259 137.126 48.2222C139.412 48.4691 141.698 48.8395 143.984 49.3333C146.27 49.7778 148.209 50.7407 149.799 52.2222C151.39 53.6543 152.185 55.5802 152.185 58C152.185 61.358 150.47 64.1975 147.041 66.5185C143.661 68.8395 138.791 70 132.429 70ZM134.069 62.4444C136.206 62.4444 137.995 62.1728 139.437 61.6296C140.878 61.0864 141.599 60.2963 141.599 59.2593C141.599 58.0247 140.654 57.1358 138.766 56.5926C136.877 56.0988 134.616 55.7037 131.982 55.4074C129.347 55.1111 127.608 54.7407 126.763 54.2963C125.769 55.1852 125.272 56.2716 125.272 57.5556C125.272 59.037 126.042 60.2222 127.583 61.1111C129.173 62 131.335 62.4444 134.069 62.4444ZM133.249 35.4074C134.74 35.4074 135.933 34.963 136.827 34.0741C137.772 33.1358 138.244 31.8272 138.244 30.1481C138.244 28.716 137.772 27.4568 136.827 26.3704C135.933 25.2346 134.69 24.6667 133.1 24.6667C131.658 24.6667 130.491 25.1358 129.596 26.0741C128.701 26.963 128.254 28.2963 128.254 30.0741C128.254 31.5062 128.676 32.7654 129.521 33.8519C130.416 34.8889 131.658 35.4074 133.249 35.4074Z" fill="#3C3F42"/>
<path d="M153.558 52.4444V17.4074H163.175L164.293 20.963C168.17 18 172.121 16.5185 176.146 16.5185C184.049 16.5185 188 20.8642 188 29.5556V52.4444H176.743V32.8889C176.743 30.716 176.42 29.0617 175.774 27.9259C175.128 26.7407 173.86 26.1481 171.972 26.1481C169.437 26.1481 167.051 27.0123 164.815 28.7407V52.4444H153.558Z" fill="#3C3F42"/>
</svg>
