<?xml version="1.0" encoding="UTF-8"?>
<svg id="Layer_1" xmlns="http://www.w3.org/2000/svg" version="1.1" viewBox="0 0 199 190">
  <!-- Generator: Adobe Illustrator 29.1.0, SVG Export Plug-In . SVG Version: 2.1.0 Build 142)  -->
  <defs>
    <style>
      .st0 {
        fill: #fff;
      }

      .st1 {
        fill: #3c3f42;
      }
    </style>
  </defs>
  <path class="st0" d="M94,130.5c-2.6-1.8-5.5-3.2-8.7-4.1-5.9-1.9-12.1-3.5-18.8-4.8-6.7-1.4-13-2.4-18.8-3.1-5.9-.7-10.7-2.1-14.6-4.3-3.9-2.4-5.8-5.4-5.8-9.2s2.6-10.6,7.8-16.1c5,1.9,10.4,2.8,16.1,2.8,13.2,0,23.9-4,31.9-12,5.1-5,8.6-10.8,10.5-17.6l21.7,52.1-21.2,16.4Z"/>
  <path class="st1" d="M50,190c-15.4,0-26.9-3.1-36.1-9.2C4.7,174.9,0,166.4,0,155.5s7.5-24.1,22.4-31.9c-5.7-3.2-8.5-8.3-8.5-15.1s3.9-16.4,11.8-24.3c-11.9-8.3-17.8-20.3-17.8-36s4-22.4,12.1-30.4c8.2-8,18.1-12,29.6-12s14.9,1.4,21.6,4.3c1.2.5,2,.5,2.5,0,6-6.5,13.6-9.7,22.6-9.7s4.8.3,6.8.8l-3.8,11.7c-2-.5-4-.8-6-.8-4.7,0-8.9,1.4-12.6,4.1,9.7,8.3,14.6,19.1,14.6,32.2s-4.1,23.1-12.3,31.1c-8,8-18.7,12-31.9,12s-11.1-.9-16.1-2.8c-5.2,5.4-7.8,10.8-7.8,16.1s1.9,6.8,5.8,9.2c3.9,2.2,8.7,3.7,14.6,4.3,5.9.7,12.1,1.7,18.8,3.1,6.7,1.4,13,3,18.8,4.8,5.9,1.7,10.7,4.9,14.6,9.4,3.9,4.6,5.8,10.4,5.8,17.4,0,11.4-5,20.3-15.1,26.8-9.9,6.6-23.9,10-40.5,10ZM50,178c13.2,0,24.5-2,31.2-6.6,6.9-4.4,10.3-10,10.3-16.8s-1.3-8.3-3.8-11.2c-2.3-2.9-5.8-5.1-10.3-6.6-4.5-1.5-9-2.6-13.6-3.3-4.5-.7-10-1.5-16.3-2.6-6.2-.9-11.2-1.8-15.1-2.8-12.9,7.7-19.3,16.2-19.3,25.5s3.5,13.7,10.6,18.1c7,4.4,14.9,6.4,26.3,6.4ZM51.3,79.5c8.7,0,15.8-2.7,21.4-8.2,5.5-5.4,8.3-13,8.3-22.7s-2.8-16.3-8.5-22c-5.5-5.6-12.6-8.4-21.1-8.4s-16,2.8-21.4,8.4c-5.4,5.4-8,12.7-8,21.7s2.7,16.9,8,22.7c5.4,5.6,12.5,8.4,21.4,8.4Z"/>
  <path class="st1" d="M146,132.1c-15.7,0-28.5-6-38.2-18.1-9.7-12.1-14.6-27.1-14.6-44.9s4.9-33.1,14.6-45.2c9.7-12.1,22.5-18.1,38.4-18.1s28.5,6,38.2,18.1c9.7,12.1,14.6,27.1,14.6,45.2s-4.9,32.8-14.6,44.9c-9.7,12.1-22.5,18.1-38.4,18.1ZM117.9,105.8c7.2,9.4,16.6,14,28.1,14s20.9-4.7,28.1-14c7.2-9.5,10.8-21.8,10.8-36.8s-3.6-27.4-10.8-36.8c-7-9.5-16.3-14.3-27.9-14.3s-20.9,4.8-28.1,14.3c-7.2,9.4-10.8,21.6-10.8,36.8s3.5,27.2,10.6,36.8Z"/>
  <path class="st0" d="M117.9,105.8c7.2,9.4,16.6,14,28.1,14s20.9-4.7,28.1-14c7.2-9.5,10.8-21.8,10.8-36.8s-3.6-27.4-10.8-36.8c-7-9.5-16.3-14.3-27.9-14.3s-20.9,4.8-28.1,14.3c-7.2,9.4-10.8,21.6-10.8,36.8s3.5,27.2,10.6,36.8Z"/>
  <path class="st0" d="M50,178c13.2,0,24.5-2,31.2-6.6,6.9-4.4,10.3-10,10.3-16.8s-1.3-8.3-3.8-11.2c-2.3-2.9-5.8-5.1-10.3-6.6-4.5-1.5-9-2.6-13.6-3.3-4.5-.7-10-1.5-16.3-2.6-6.2-.9-11.2-1.8-15.1-2.8-12.9,7.7-19.3,16.2-19.3,25.5s3.5,13.7,10.6,18.1c7,4.4,14.9,6.4,26.3,6.4Z"/>
  <path class="st0" d="M51.3,79.5c8.7,0,15.8-2.7,21.4-8.2,5.5-5.4,8.3-13,8.3-22.7s-2.8-16.3-8.5-22c-5.5-5.6-12.6-8.4-21.1-8.4s-16,2.8-21.4,8.4c-5.4,5.4-8,12.7-8,21.7s2.7,16.9,8,22.7c5.4,5.6,12.5,8.4,21.4,8.4Z"/>
</svg>