<svg width="215" height="171" viewBox="0 0 215 171" fill="none" xmlns="http://www.w3.org/2000/svg">
<path d="M0 168.227V0H38.4357V135.296H95.21V168.227H0Z" fill="white"/>
<path d="M196.637 152.91C185.082 164.823 170.093 170.779 151.67 170.779C133.248 170.779 118.175 164.823 106.452 152.91C94.8959 140.997 89.118 125.851 89.118 107.471C89.118 89.0912 94.8959 74.0299 106.452 62.2873C118.175 50.3744 133.248 44.418 151.67 44.418C170.093 44.418 185.082 50.3744 196.637 62.2873C208.361 74.0299 214.222 89.0912 214.222 107.471C214.222 125.851 208.361 140.997 196.637 152.91ZM133.583 131.467C137.602 137.423 143.631 140.402 151.67 140.402C159.709 140.402 165.654 137.423 169.506 131.467C173.526 125.34 175.536 117.342 175.536 107.471C175.536 97.6004 173.526 89.6869 169.506 83.7304C165.654 77.774 159.709 74.7958 151.67 74.7958C143.631 74.7958 137.602 77.774 133.583 83.7304C129.731 89.6869 127.805 97.6004 127.805 107.471C127.805 117.342 129.731 125.34 133.583 131.467Z" fill="white"/>
</svg>
