<svg width="49" height="36" viewBox="0 0 49 36" fill="none" xmlns="http://www.w3.org/2000/svg">
<path d="M0 35.2727L7.18798 0.872727H11.5008L10.4226 7.78182H10.5663C11.6685 5.30909 14.8072 2.03636 14.8072 2.03636C14.8072 2.03636 18.3773 0 20.342 0C21.8275 0 23.0974 0.339394 24.1516 1.01818L21.9952 5.74545C21.1806 5.30909 20.2462 5.09091 19.1919 5.09091C16.9397 5.09091 14.8072 6.42424 12.7946 9.09091C10.782 11.7576 9.24854 15.6606 8.1943 20.8L5.17535 35.2727H0Z" fill="#8E9194"/>
<path d="M34.2646 36C30.2394 36 26.9569 34.7152 24.4171 32.1455C21.8773 29.5758 20.6075 25.9879 20.6075 21.3818C20.6075 15.2727 22.2607 10.1818 25.5672 6.10909C28.8737 2.03636 33.0187 0 38.0024 0C41.5964 0 44.3278 1.01818 46.1967 3.05454C48.0656 5.09091 49 7.78182 49 11.1273C49 13.7455 48.4968 16.3151 47.4905 18.8364L25.9266 19.1273C25.8307 20 25.7828 20.6788 25.7828 21.1636C25.7828 24.4121 26.5975 26.9576 28.2267 28.8C29.856 30.5939 32.0124 31.4909 34.6959 31.4909C37.619 31.4909 40.7099 30.5939 43.9684 28.8L45.406 32.7273C42.0995 34.9091 38.3857 36 34.2646 36ZM26.6454 14.9818L43.1777 14.7636C43.5611 13.3576 43.7528 12.0727 43.7528 10.9091C43.7528 9.11515 43.2736 7.58788 42.3152 6.32727C41.3568 5.06667 39.7515 4.43636 37.4992 4.43636C34.9116 4.43636 32.5874 5.45454 30.5269 7.49091C28.5143 9.52727 27.2204 12.0242 26.6454 14.9818Z" fill="#8E9194"/>
</svg>
